<svg width="170" height="170" viewBox="0 0 170 170" fill="none" xmlns="http://www.w3.org/2000/svg">
<path d="M84.3285 0.00146484C66.4628 0.142604 49.0958 5.90967 34.6945 16.4835C20.2931 27.0573 9.58976 41.9001 4.10476 58.9036C-1.38023 75.9071 -1.36794 94.2066 4.13989 111.203C9.64772 128.199 20.371 143.027 34.7865 153.582C49.2021 164.136 66.5768 169.88 84.4427 169.997C102.309 170.114 119.757 164.599 134.31 154.234C148.863 143.87 159.779 129.183 165.51 112.261C171.24 95.3383 171.492 77.0405 166.23 59.9666L151.644 64.5879C155.932 78.5861 155.702 93.5789 150.989 107.439C146.275 121.3 137.317 133.324 125.385 141.807C113.453 150.289 99.1525 154.799 84.5128 154.697C69.8731 154.595 55.6374 149.885 43.825 141.237C32.0126 132.588 23.2233 120.44 18.704 106.515C14.1848 92.5897 14.1649 77.5952 18.6474 63.6582C23.1298 49.7213 31.8869 37.5497 43.6764 28.8699C55.4659 20.1902 69.6892 15.4431 84.3285 15.302V0.00146484Z" fill="#E5E5E5"/>
<path d="M165.825 58.6863C160.307 41.7347 149.598 26.9473 135.214 16.4159C120.83 5.88455 103.499 0.142296 85.6719 0.00146484V15.302C100.248 15.4425 114.414 20.1495 126.175 28.7609C137.937 37.3722 146.703 49.4545 151.239 63.3077L165.825 58.6863Z" fill="#004B8D"/>
<circle opacity="0.5" cx="85.4788" cy="84.9934" r="46.7513" stroke="#737373" stroke-width="0.5"/>
<path d="M59.72 83.3005V86.1805C60.36 86.1005 61.04 86.0605 61.76 86.0605C62.6133 86.0605 63.4 86.1805 64.12 86.4205C64.8667 86.6338 65.5067 86.9805 66.04 87.4605C66.5733 87.9138 67 88.4872 67.32 89.1805C67.64 89.8472 67.8 90.6205 67.8 91.5005C67.8 92.3538 67.6267 93.1272 67.28 93.8205C66.96 94.4872 66.52 95.0605 65.96 95.5405C65.4 95.9938 64.7467 96.3538 64 96.6205C63.2533 96.8605 62.4667 96.9805 61.64 96.9805C59.6933 96.9805 58.2133 96.4072 57.2 95.2605C56.1867 94.0872 55.6533 92.5805 55.6 90.7405H52.2C52.1733 92.2072 52.3733 93.5138 52.8 94.6605C53.2533 95.8072 53.8933 96.7805 54.72 97.5805C55.5467 98.3538 56.5467 98.9405 57.72 99.3405C58.8933 99.7405 60.2 99.9405 61.64 99.9405C62.9733 99.9405 64.2267 99.7672 65.4 99.4205C66.6 99.0472 67.64 98.5005 68.52 97.7805C69.4 97.0605 70.0933 96.1672 70.6 95.1005C71.1333 94.0072 71.4 92.7538 71.4 91.3405C71.4 89.6338 70.9733 88.1538 70.12 86.9005C69.2933 85.6472 68.0133 84.8338 66.28 84.4605V84.3805C67.4 83.8738 68.3333 83.1272 69.08 82.1405C69.8267 81.1538 70.2 80.0205 70.2 78.7405C70.2 77.4338 69.9733 76.3005 69.52 75.3405C69.0933 74.3805 68.4933 73.5938 67.72 72.9805C66.9467 72.3672 66.0267 71.9138 64.96 71.6205C63.92 71.3005 62.7867 71.1405 61.56 71.1405C60.1467 71.1405 58.8933 71.3672 57.8 71.8205C56.7333 72.2738 55.84 72.9005 55.12 73.7005C54.4 74.5005 53.84 75.4605 53.44 76.5805C53.0667 77.7005 52.8533 78.9405 52.8 80.3005H56.2C56.2 79.4738 56.3067 78.6872 56.52 77.9405C56.7333 77.1938 57.0533 76.5405 57.48 75.9805C57.9333 75.4205 58.4933 74.9805 59.16 74.6605C59.8533 74.3138 60.6533 74.1405 61.56 74.1405C63 74.1405 64.2 74.5272 65.16 75.3005C66.12 76.0472 66.6 77.1805 66.6 78.7005C66.6 79.4472 66.4533 80.1138 66.16 80.7005C65.8667 81.2872 65.4667 81.7805 64.96 82.1805C64.48 82.5538 63.9067 82.8472 63.24 83.0605C62.6 83.2472 61.92 83.3405 61.2 83.3405H60.48C60.3467 83.3405 60.2133 83.3405 60.08 83.3405C59.9733 83.3405 59.8533 83.3272 59.72 83.3005ZM77.7066 85.5405C77.7066 84.8472 77.7066 84.0872 77.7066 83.2605C77.7332 82.4072 77.7999 81.5672 77.9066 80.7405C78.0399 79.8872 78.2132 79.0605 78.4266 78.2605C78.6666 77.4605 78.9999 76.7672 79.4266 76.1805C79.8799 75.5672 80.4399 75.0738 81.1066 74.7005C81.7732 74.3272 82.5866 74.1405 83.5466 74.1405C84.5066 74.1405 85.3199 74.3272 85.9866 74.7005C86.6532 75.0738 87.1999 75.5672 87.6266 76.1805C88.0799 76.7672 88.4132 77.4605 88.6266 78.2605C88.8666 79.0605 89.0399 79.8872 89.1466 80.7405C89.2799 81.5672 89.3466 82.4072 89.3466 83.2605C89.3732 84.0872 89.3866 84.8472 89.3866 85.5405C89.3866 86.6072 89.3466 87.8072 89.2666 89.1405C89.2132 90.4472 88.9999 91.6872 88.6266 92.8605C88.2799 94.0072 87.7066 94.9805 86.9066 95.7805C86.1066 96.5805 84.9866 96.9805 83.5466 96.9805C82.1066 96.9805 80.9866 96.5805 80.1866 95.7805C79.3866 94.9805 78.7999 94.0072 78.4266 92.8605C78.0799 91.6872 77.8666 90.4472 77.7866 89.1405C77.7332 87.8072 77.7066 86.6072 77.7066 85.5405ZM74.1066 85.5805C74.1066 86.6205 74.1332 87.7005 74.1866 88.8205C74.2399 89.9405 74.3732 91.0338 74.5866 92.1005C74.7999 93.1672 75.1066 94.1805 75.5066 95.1405C75.9066 96.0738 76.4532 96.9005 77.1466 97.6205C77.8399 98.3405 78.7066 98.9138 79.7466 99.3405C80.8132 99.7405 82.0799 99.9405 83.5466 99.9405C85.0399 99.9405 86.3066 99.7405 87.3466 99.3405C88.3866 98.9138 89.2532 98.3405 89.9466 97.6205C90.6399 96.9005 91.1866 96.0738 91.5866 95.1405C91.9866 94.1805 92.2932 93.1672 92.5066 92.1005C92.7199 91.0338 92.8532 89.9405 92.9066 88.8205C92.9599 87.7005 92.9866 86.6205 92.9866 85.5805C92.9866 84.5405 92.9599 83.4605 92.9066 82.3405C92.8532 81.2205 92.7199 80.1272 92.5066 79.0605C92.2932 77.9938 91.9866 76.9805 91.5866 76.0205C91.1866 75.0605 90.6399 74.2205 89.9466 73.5005C89.2532 72.7805 88.3732 72.2072 87.3066 71.7805C86.2666 71.3538 85.0132 71.1405 83.5466 71.1405C82.0799 71.1405 80.8132 71.3538 79.7466 71.7805C78.7066 72.2072 77.8399 72.7805 77.1466 73.5005C76.4532 74.2205 75.9066 75.0605 75.5066 76.0205C75.1066 76.9805 74.7999 77.9938 74.5866 79.0605C74.3732 80.1272 74.2399 81.2205 74.1866 82.3405C74.1332 83.4605 74.1066 84.5405 74.1066 85.5805Z" fill="black"/>
<path d="M99.008 76.3085C99.008 75.9405 99.032 75.5565 99.08 75.1565C99.128 74.7405 99.224 74.3645 99.368 74.0285C99.528 73.6765 99.744 73.3885 100.016 73.1645C100.288 72.9245 100.648 72.8045 101.096 72.8045C101.56 72.8045 101.92 72.9245 102.176 73.1645C102.448 73.3885 102.656 73.6765 102.8 74.0285C102.944 74.3645 103.032 74.7405 103.064 75.1565C103.112 75.5565 103.136 75.9325 103.136 76.2845C103.136 76.6525 103.112 77.0445 103.064 77.4605C103.016 77.8765 102.912 78.2605 102.752 78.6125C102.608 78.9485 102.4 79.2285 102.128 79.4525C101.856 79.6765 101.488 79.7885 101.024 79.7885C100.576 79.7885 100.216 79.6765 99.944 79.4525C99.688 79.2125 99.488 78.9245 99.344 78.5885C99.2 78.2365 99.104 77.8605 99.056 77.4605C99.024 77.0445 99.008 76.6605 99.008 76.3085ZM97.208 76.3565C97.208 77.0125 97.272 77.6285 97.4 78.2045C97.544 78.7805 97.768 79.2845 98.072 79.7165C98.376 80.1485 98.776 80.4925 99.272 80.7485C99.768 80.9885 100.376 81.1085 101.096 81.1085C101.8 81.1085 102.392 80.9725 102.872 80.7005C103.352 80.4285 103.744 80.0765 104.048 79.6445C104.368 79.1965 104.592 78.6845 104.72 78.1085C104.864 77.5165 104.936 76.9085 104.936 76.2845C104.936 75.6285 104.872 75.0125 104.744 74.4365C104.632 73.8445 104.424 73.3325 104.12 72.9005C103.832 72.4685 103.44 72.1245 102.944 71.8685C102.464 71.6125 101.848 71.4845 101.096 71.4845C100.36 71.4845 99.744 71.6205 99.248 71.8925C98.752 72.1485 98.352 72.5005 98.048 72.9485C97.744 73.3965 97.528 73.9165 97.4 74.5085C97.272 75.0845 97.208 75.7005 97.208 76.3565ZM110.864 83.9885C110.864 83.6205 110.888 83.2365 110.936 82.8365C110.984 82.4205 111.08 82.0445 111.224 81.7085C111.384 81.3565 111.6 81.0685 111.872 80.8445C112.144 80.6045 112.504 80.4845 112.952 80.4845C113.416 80.4845 113.776 80.6045 114.032 80.8445C114.304 81.0685 114.512 81.3565 114.656 81.7085C114.8 82.0445 114.888 82.4205 114.92 82.8365C114.968 83.2365 114.992 83.6125 114.992 83.9645C114.992 84.3325 114.968 84.7245 114.92 85.1405C114.872 85.5565 114.768 85.9405 114.608 86.2925C114.464 86.6285 114.256 86.9085 113.984 87.1325C113.712 87.3565 113.344 87.4685 112.88 87.4685C112.432 87.4685 112.072 87.3565 111.8 87.1325C111.544 86.8925 111.344 86.6045 111.2 86.2685C111.056 85.9165 110.96 85.5405 110.912 85.1405C110.88 84.7245 110.864 84.3405 110.864 83.9885ZM109.064 84.0365C109.064 84.6925 109.128 85.3085 109.256 85.8845C109.4 86.4605 109.624 86.9645 109.928 87.3965C110.232 87.8125 110.632 88.1485 111.128 88.4045C111.624 88.6445 112.232 88.7645 112.952 88.7645C113.656 88.7645 114.248 88.6365 114.728 88.3805C115.208 88.1085 115.6 87.7565 115.904 87.3245C116.224 86.8765 116.448 86.3645 116.576 85.7885C116.72 85.1965 116.792 84.5885 116.792 83.9645C116.792 83.3085 116.728 82.6925 116.6 82.1165C116.488 81.5245 116.28 81.0125 115.976 80.5805C115.688 80.1485 115.296 79.8045 114.8 79.5485C114.32 79.2925 113.704 79.1645 112.952 79.1645C112.216 79.1645 111.6 79.3005 111.104 79.5725C110.608 79.8285 110.208 80.1805 109.904 80.6285C109.6 81.0765 109.384 81.5965 109.256 82.1885C109.128 82.7645 109.064 83.3805 109.064 84.0365ZM112.424 71.1725L99.512 89.0045H101.576L114.464 71.1725H112.424Z" fill="black"/>
</svg>
