<svg width="254" height="82" viewBox="0 0 254 82" fill="none" xmlns="http://www.w3.org/2000/svg">
<g clip-path="url(#clip0_941_34471)">
<path d="M22.3413 12.6794C22.5852 9.44836 20.9267 7.58806 17.7559 7.58806C14.195 7.58806 11.512 10.6233 10.4389 16.6448C9.65838 21.0018 9.90228 25.0651 15.073 25.0651C18.3413 25.0651 20.2925 22.7642 21.1706 19.8269H30.9267C28.634 27.8555 22.0486 32.6531 13.9023 32.6531C3.65838 32.6531 -1.41479 26.3379 0.34131 16.3021C2.09741 6.26627 9.99985 0 18.634 0C28.0974 0 32.5364 4.6997 31.9511 12.6794H22.3413Z" fill="#003366"/>
<path d="M47.5124 21.2954H41.1222L46.1954 10.1826L47.5124 21.2954ZM36.1466 31.8208L38.0002 27.7575H48.0978L48.5856 31.8208H58.6832L53.0734 0.783203H42.7807L26.2441 31.8208H36.1466Z" fill="#003366"/>
<path d="M174 30.2051L171.804 26.3377C170.048 23.4983 168 20.9036 165.853 18.5538C164.39 16.9872 162.878 15.5675 161.268 14.2457L160.975 14.0009C160.195 13.3645 159.414 12.7771 158.634 12.2386C156.39 10.672 154.097 9.3502 151.707 8.37109L147.561 32.0654H157.804L159.707 21.1484H162.829C167.609 21.1484 168.048 22.5192 167.317 26.5824C166.829 29.3729 166.731 31.38 166.878 32.0654H174.878C174.634 31.478 174.341 30.8415 174 30.2051Z" fill="#003366"/>
<path d="M167.854 0.783203H153.074L152.537 3.76947C154.342 4.65067 156.147 5.67873 157.903 6.90261C159.22 7.83276 160.488 8.81186 161.708 9.88888L162.049 8.02858H166.83C169.22 8.02858 170.781 9.05664 170.391 11.3086C170.049 13.2178 168.586 14.0501 166.049 14.2459C167.903 16.302 169.61 18.6029 171.122 21.0507L173.318 24.9181C174.537 27.3169 175.513 29.7647 176.244 32.1145H177.366C177.366 32.1145 176.683 29.7647 177.415 25.6525C178.537 19.3372 176.683 18.554 173.562 17.3301C177.366 16.351 179.513 13.2668 180.147 9.69305C181.171 3.57365 178.244 0.783203 167.854 0.783203Z" fill="#003366"/>
<path d="M141.658 7.39227C139.512 7.49018 137.512 7.97973 135.756 8.76301C138.975 9.59525 139.609 13.5117 138.975 17.2323C138.048 22.4215 135.658 26.24 131.268 26.24C128.439 26.24 127.122 24.5756 126.683 22.3726C126.634 22.1767 126.585 22.0299 126.585 21.883C126.585 21.883 126.585 21.883 126.585 21.8341C126.487 21.0997 126.439 20.3654 126.487 19.5821C126.487 16.8896 126.829 14.3929 127.561 12.2388C128.585 9.05674 130.39 6.51107 132.731 4.79764C134.975 3.13316 137.756 2.20301 140.926 2.05615C141.317 2.05615 141.707 2.05615 142.048 2.05615C140.292 1.37077 138.146 0.930176 135.707 0.930176C126 0.930176 118.243 7.34331 116.487 17.1344C114.634 27.7576 120.097 33.877 129.902 33.877C139.122 33.877 147.365 27.8556 149.219 17.2323C149.756 14.0502 149.561 10.917 148.439 8.2245C146.146 7.58809 143.853 7.29436 141.658 7.39227Z" fill="#003366"/>
<path d="M75.5126 21.589C74.8297 21.7359 74.1468 21.8828 73.4639 22.0786L78.1468 31.8696H78.8785C79.1224 31.1353 79.3663 30.401 79.5126 29.6667C79.9029 27.7574 79.9029 27.6105 79.5614 25.6523C79.4639 25.2607 79.7078 24.918 80.0004 24.8201C80.2931 24.7711 80.5858 24.918 80.7322 25.4076C81.0248 26.9252 81.0736 27.7574 81.0736 29.1771C81.0736 30.0583 81.0248 30.9884 80.9273 31.8696H87.6102L89.0248 23.7431C83.659 21.3932 79.5614 20.7568 75.5126 21.589Z" fill="#003366"/>
<path d="M68.9266 22.6171L70.0973 14.9801L72.9266 20.9037C77.6583 19.484 82.9754 19.6308 88.7315 21.2953C88.7315 21.2953 89.0729 21.3932 89.4632 21.4911L93.0729 0.832031H83.3656L80.7802 17.7705L72.7315 0.832031H63.2193L57.7559 31.8696H60.7315C61.5607 30.3031 62.4388 28.8834 63.3168 27.7574C65.0729 25.5055 66.8778 23.841 68.9266 22.6171Z" fill="#003366"/>
<path d="M68.6832 24.2817C67.2686 25.2119 65.9027 26.5337 64.732 28.1002C63.8539 29.2262 63.0247 30.4991 62.293 31.8698H67.5125L68.6832 24.2817Z" fill="#003366"/>
<path d="M94.4879 0.783203L93.0732 8.90977H102.195L99.7562 22.5193C101.024 22.1766 102.342 21.6381 103.903 20.9038C104.146 20.8059 104.439 20.8548 104.634 21.0507C104.781 21.1486 104.829 21.3444 104.829 21.4913C104.829 21.5402 104.829 21.6381 104.781 21.6871C103.805 24.6244 102.244 26.0441 99.561 26.4847C99.4147 26.5337 99.2196 26.5337 99.0732 26.5826L98.1464 31.8208H108.293L112.293 8.90977H121.415L122.829 0.783203H94.4879Z" fill="#003366"/>
<path d="M68.9265 22.6174L68.6826 24.3308C68.7314 24.2818 68.7802 24.2818 68.7802 24.2329C70.4875 23.058 71.9509 22.4705 73.4631 22.0299L72.9265 20.855C71.4631 21.2956 70.146 21.883 68.9265 22.6174Z" fill="black"/>
<path d="M91.0732 21.9808C91.0732 21.9808 90.1464 21.687 89.4635 21.4912L89.0732 23.7432C89.4147 23.89 89.8049 24.0858 90.1464 24.2327L92.5366 25.3097C95.2196 26.3378 97.3171 26.7294 99.0245 26.4846L99.7074 22.4703C97.0732 23.2046 94.6342 23.0088 91.0732 21.9808Z" fill="black"/>
<path d="M65.8539 46.5074C64.1466 46.9969 62.5368 46.8011 61.4637 45.9689C59.5612 44.3533 59.4637 41.8077 59.5125 40.7796C59.5612 38.2829 60.6344 34.905 62.2929 31.8208H60.8295C58.9271 35.5904 57.5612 40.2411 58.6344 43.5701C59.3661 45.9199 60.6344 47.2417 62.6832 47.8292C67.2198 49.102 73.5612 45.5772 76.8295 41.5629C79.61 38.185 80.6832 34.9539 81.0247 31.8208H78.9271C76.6832 38.185 71.0247 44.696 65.8539 46.5074Z" fill="black"/>
<path d="M85.4145 43.8637L85.8047 42.8356C85.8047 42.8356 86.1462 42.0523 86.2437 41.8565C86.3901 41.7586 88.0974 40.8774 88.0974 40.8774C88.0974 40.8774 89.4145 40.1431 90.1949 39.7025C89.9998 40.29 89.7071 41.0243 89.4145 41.5628C88.8779 42.5909 88.4876 43.57 88.1949 44.4022C87.3169 46.6541 86.6828 48.2697 83.4632 49.9341C83.2193 50.081 83.1706 50.2279 83.1706 50.3258C83.1706 50.3747 83.1706 50.4237 83.2193 50.4726C83.3657 50.7664 83.8047 50.7174 84.0486 50.6195C85.3169 50.13 89.2193 48.3676 90.634 46.6541C91.9023 45.1855 91.8535 43.9616 91.8047 42.5909V41.1712L91.8535 40.1431C91.9023 38.8213 92.3901 38.3807 93.1706 37.7443C93.7559 37.2058 94.5364 36.5204 95.2193 35.1986C95.4145 34.9049 95.512 34.5622 95.4145 34.2685C95.3657 33.9747 95.1706 33.681 94.8779 33.4852C94.1462 33.0446 93.4145 33.6321 93.1706 33.9258C92.634 34.6112 91.8535 35.835 90.9754 37.8912C90.8291 37.9891 90.2925 38.2338 90.2925 38.2338C90.2925 38.2338 88.0974 39.3598 87.1218 39.8494C89.1218 35.1007 92.7315 30.7437 97.073 28.1001L96.9754 28.1491C97.1706 28.1001 97.3169 27.9532 97.3657 27.7574C97.4145 27.5616 97.3169 27.4147 97.2193 27.3168C97.1706 27.2679 96.9754 27.17 96.6827 27.3168C92.1462 29.4219 88.3413 32.4571 84.3901 37.01C82.9754 38.6255 81.3169 40.8774 80.6827 41.9055C80.5852 41.9544 79.951 42.2971 79.951 42.2971L76.8779 44.0106C73.1706 46.2625 68.0486 49.8852 65.8535 55.2703C65.2193 56.8368 64.8291 58.6971 64.7803 60.8022C64.8291 61.2917 65.073 61.4876 65.3169 61.4876C65.5608 61.4876 65.8047 61.2428 65.8535 60.8022C66.0974 52.5288 74.4388 46.801 79.7559 43.9126C79.1706 45.0876 78.0486 47.3885 77.1218 48.9061L76.5852 49.7873C72.4388 56.4452 68.8291 62.1729 62.0486 62.9073C60.1462 63.152 57.1218 62.6625 55.0242 61.7813C54.4876 61.4876 53.2193 60.8512 53.4145 60.1658C53.512 59.7252 53.6584 59.7252 54.3901 59.7741H54.5852C55.6584 59.921 56.4876 59.2846 56.6827 58.1097C56.8291 57.3753 56.634 56.7389 56.2437 56.2004C55.7559 55.564 55.1218 55.3192 54.2925 55.4171C53.0242 55.6129 52.1949 56.641 51.9023 57.5712C51.7559 58.0607 51.2681 59.921 52.7315 61.6344C54.8291 63.9843 60.2437 64.327 61.951 64.2291C72.7315 63.4458 80.634 56.641 85.4145 43.8637Z" fill="black"/>
<path d="M231.951 53.0186C231.756 53.0676 231.61 53.2144 231.561 53.4102C229.805 59.138 224.732 62.8586 222.537 63.2502C222.293 63.2992 221.805 63.3482 221.61 63.1034C221.463 62.9076 221.805 62.2711 222.195 61.5858L222.488 61.0962L245.854 25.7505H240.927C240.927 25.7505 226.585 47.4377 225.805 48.6126C225.659 47.9762 225.268 47.095 224.049 46.6055C221.805 45.7732 218.244 47.0461 214.683 49.9344C212.488 51.6968 210.293 54.1446 208.195 56.4944C204.927 60.1171 201.854 63.544 199.707 63.4461V63.3971C199.707 63.1523 200 62.369 200.683 61.4389L211.756 46.2138C215.463 43.5213 218.732 40.7798 220.439 39.0664C223.902 35.5416 228.634 29.3732 228.634 26.338C228.634 26.2401 228.634 26.1911 228.634 26.0932C228.537 24.7225 228 24.0861 226.878 23.9392C224.049 23.4496 216.683 32.9469 216.39 33.3386L205.805 47.0461C198.78 55.3685 189.756 63.2992 188.634 63.0055L188.585 62.9565V62.9076C188.585 62.5649 189.122 61.8305 189.561 61.2431L199.659 46.8013H194.732C194.732 46.8013 193.463 48.3189 192.878 48.9553C192.732 48.3189 192.39 47.3887 191.073 46.8992C188.195 45.8222 184.146 48.4658 181.951 50.1792C180 51.6968 178.585 53.3613 177.463 54.6831C175.951 56.4455 174.976 57.6204 173.805 57.2288C172.976 56.935 172.78 56.4455 172.634 55.907C172.634 55.907 172.585 55.809 172.537 55.6622C172.634 55.5643 172.78 55.4174 172.78 55.4174C173.317 54.8789 173.902 54.2425 174.683 52.9207C175.22 52.0884 175.366 51.1583 175.463 50.5219L175.561 50.0813C175.61 49.9344 175.61 49.7876 175.61 49.5917C175.61 48.8085 175.317 47.6825 174.537 47.4377C173.22 46.8992 172.537 48.172 172.341 48.6126C172.195 48.9553 172 49.5428 171.61 50.8156C171.415 51.6479 171.122 52.9207 171.122 55.2216C170.878 55.3685 168 57.2777 168 57.2777C168 57.2777 167.463 57.7183 166.878 58.1589C167.366 57.3756 167.854 56.5434 167.854 56.5434L169.024 54.6341C169.951 53.0676 170.439 51.4031 170.439 50.0323C170.439 49.5917 170.39 49.1511 170.244 48.8084C169.902 47.9273 169.415 47.5356 168.537 47.3887C167.854 47.3398 167.171 47.4377 166.439 47.8293C164.732 48.7595 163.463 50.2771 161.61 52.3332C160.537 53.5571 159.317 54.9768 157.805 56.5434C154.049 60.3619 148.829 63.3482 147.366 63.2502L147.171 63.2013C147.122 63.1034 147.073 63.0055 147.073 62.8586C147.073 62.1732 147.659 61.0473 147.902 60.6067C147.902 60.6067 148.488 59.6276 148.585 59.4317C148.732 59.3338 152.195 57.5714 152.195 57.5714L152.634 57.3267C155.463 55.809 159.268 53.704 159.268 49.7876C159.268 49.6407 159.268 49.4938 159.268 49.347C159.171 48.4658 158.976 47.2419 157.756 46.8013C154.927 45.9201 148.927 51.2562 146.146 54.1935L145.268 55.1237C143.805 56.7392 140.927 59.9702 136.829 62.6628C138.146 60.7046 147.22 46.8992 147.22 46.8992H142.634C142.634 46.8992 141.22 48.6616 140.439 49.5917V49.5428C140.439 49.0532 140.341 48.5147 140.098 48.0252C139.756 47.3887 139.268 46.9971 138.537 46.8013C134.634 45.8222 127.756 51.501 124 57.1798C122.049 60.1171 120.878 60.9983 118.976 60.9493L118.098 60.8514C117.366 60.7535 116.488 60.6067 115.073 60.7535C116.634 59.6765 118.878 58.012 119.951 55.5643L120.976 53.3613C121.61 52.1864 122.341 50.9625 123.366 50.3261L123.659 50.1792L124.634 49.7876L124.78 49.7386C125.268 49.5917 126.098 49.298 126.341 48.7595V48.1231L126 47.5846C125.317 46.9971 124.39 48.0252 124 48.4168C123.707 48.7595 123.073 49.2001 122.683 49.1511C122.439 49.1022 122.244 48.9553 122 48.7105L120.976 47.9762C120.293 47.4867 119.756 47.3887 119.073 47.3398C116.293 47.2419 114.927 49.1022 112.39 52.4801L109.122 56.7392C106.683 59.6765 102.488 63.3482 101.024 63.3971C101.024 63.1034 101.366 62.2711 101.951 61.3899C101.951 61.3899 112.927 44.5493 113.854 43.1786C114.146 43.1786 117.073 43.2276 117.073 43.2276C117.61 43.2276 118.732 42.4932 118.732 42.0037C118.732 41.8568 118.683 41.7589 118.537 41.661L118.244 41.612H114.78C115.317 40.7798 120.683 32.7022 120.683 32.7022H116.878C116.878 32.7022 111.22 41.3673 111.024 41.612H108.634C108.049 41.612 106.878 42.3464 106.878 42.8359C106.878 42.9828 106.927 43.0807 107.073 43.1296L107.366 43.1786C107.366 43.1786 109.122 43.1296 110.098 43.1296C109.707 43.6192 109.171 44.3535 109.171 44.3535C108.585 45.0879 102.683 51.5989 97.7561 56.6902C93.9512 60.6556 90.0976 63.6908 89.4146 63.3971C89.4146 63.3971 89.4146 63.3482 89.4146 63.2992C89.4146 63.0544 89.6098 62.418 90.3415 61.341L99.8537 47.095H95.0732L94.9756 47.1929C94.6341 47.4867 93.8049 48.5147 92.7805 49.7876L90.3415 52.627L90.0976 52.9207C82.4878 61.6347 78.7317 63.2502 76.9268 63.0055C76.439 62.9565 76.1951 63.0055 76.0976 63.1523L76 63.2992L76.0488 63.495C76.1951 63.7887 76.9268 63.9846 77.3659 64.0335C81.2195 64.2294 87.5122 57.7183 91.0732 53.704C89.3659 56.4944 87.4146 59.8723 87.4146 62.1732C87.4146 62.369 87.4146 62.6138 87.4634 62.8096C87.6098 63.7398 88.1951 64.3273 89.1707 64.621C91.1707 65.3064 97.4634 58.9422 98.5854 57.6693C100.488 55.5643 103.073 52.8717 104.927 50.9135C104.341 51.7458 103.756 52.6759 103.756 52.6759C101.317 56.2007 99.1219 59.7744 99.1219 62.2711C99.1219 62.467 99.122 62.6628 99.1707 62.8586C99.4146 63.7887 99.9512 64.4252 100.878 64.6699C102.878 65.3553 107.707 60.5088 110.244 57.5714C111.756 55.809 112.78 54.3404 113.512 53.2634C114.244 52.2353 114.732 51.501 115.171 51.2562C116.244 50.5219 116.585 50.6687 117.268 50.9135L118.146 51.1583C118.829 51.3052 119.415 51.2562 120.098 51.1583C118.39 52.3332 116.341 53.9487 115.122 56.6413L114.732 57.2777L114.537 57.6204C113.951 58.6974 112.634 60.9493 112.244 61.3899C112.098 61.4389 110.244 62.1243 110.244 62.1243L109.902 62.2711C109.317 62.5159 108.341 62.9076 108.341 63.6908C108.341 63.7888 108.341 63.9356 108.39 64.0335C108.488 64.4252 108.78 64.572 108.976 64.621C109.561 64.7679 110.293 64.3273 110.78 63.8867C111.463 63.2992 112.293 62.7607 112.439 62.6628C113.171 62.418 113.512 62.8096 114 63.2992C114.439 63.7888 115.024 64.3273 116 64.5231C117.512 64.7189 120.732 64.1314 125.024 57.9631C125.317 57.5225 125.61 57.1798 125.854 56.7882C125.317 58.2568 124.976 59.7744 124.976 61.0962C124.976 61.5858 125.024 62.0753 125.122 62.5159C125.366 63.6908 126.049 64.5231 127.073 64.7189C128.585 65.1105 130.098 64.3273 131.463 63.2502C130.439 64.572 129.415 65.8938 129.415 65.8938L124.78 69.2228L123.854 69.9082C119.951 72.7965 114.634 76.7129 115.22 80.0908C115.366 81.1679 116.049 81.6085 116.976 81.9022C119.902 82.7834 128.341 74.0204 130 71.6705C130.146 71.4747 134.195 66.7261 135.073 65.4532C140.146 62.2222 143.805 58.5995 145.463 56.7882C144.927 58.3547 144.634 59.7255 144.634 60.8514C144.634 61.5368 144.732 62.1243 144.927 62.6628C145.268 63.7398 146.146 64.4252 147.366 64.5231C149.317 64.6699 154.585 61.6347 158.683 57.3756L162 53.655C164.537 50.7177 166.732 48.221 168.195 48.5637C168.195 48.5637 168.195 48.5637 168.195 48.6126C168.195 48.7595 168.098 49.2001 167.415 50.3261L158 64.621H162.537L163.659 62.9565C164.683 61.4389 167.805 58.8932 168.537 58.3547L170 57.3267C170 57.3267 170.976 56.6413 171.366 56.3965V56.4455C171.707 57.1798 172 57.8652 173.317 58.4037C174.537 58.8932 175.854 57.8652 176.732 56.984C176.439 57.9631 176.098 59.3338 176.098 60.6556C176.098 61.0962 176.146 61.4879 176.195 61.8795C176.439 63.2502 177.073 63.8377 178.049 64.4252C179.902 65.4043 183.317 62.8586 185.902 60.5577C185.854 60.9004 185.805 61.292 185.805 61.5858C185.805 63.544 186.634 64.0335 187.463 64.3762L187.561 64.4252C190.049 65.2574 196.439 58.9911 201.317 53.6061C199.317 56.5923 197.561 59.6276 197.561 61.9774C197.561 62.2222 197.561 62.5159 197.61 62.7607C197.756 63.6419 198.39 64.2783 199.366 64.572C201.171 65.2085 205.659 61.341 209.268 56.984C208.976 58.012 208.732 59.2849 208.732 60.4598C208.732 60.9004 208.78 61.341 208.829 61.7816C209.073 63.1523 209.707 63.7887 210.78 64.3762C212.585 65.3553 215.902 62.8586 218.683 60.4598C218.634 60.8514 218.585 61.1941 218.585 61.5368C218.585 63.6908 219.61 64.1314 220.293 64.3762L220.39 64.4252C222.732 65.2085 229.707 61.9285 232.39 53.655C232.439 53.4592 232.39 53.2634 232.293 53.1165C232.39 53.0676 232.146 52.9696 231.951 53.0186ZM212.537 63.3971C212.195 63.495 211.805 63.4461 211.659 63.2502C211.463 63.0544 211.512 62.7607 211.61 62.5159C212.634 59.6276 214.244 57.5225 215.951 55.3195L216.927 54.0467C217.756 53.0676 219.317 51.2562 220.341 50.2771C220.878 49.6896 221.902 48.8574 222.683 48.4658C223.317 48.0741 223.951 48.0741 224.195 48.221C224.244 48.2699 224.341 48.3678 224.341 48.5637C224.244 50.0323 223.22 53.0186 218.878 58.6974C216.976 60.9983 213.512 63.1034 212.537 63.3971ZM213.268 43.5702C214.732 41.2693 220.293 32.6043 220.293 32.6043C221.707 30.3034 225.024 24.9183 227.024 25.4078L227.073 25.4568C227.122 25.5058 227.122 25.6526 227.122 25.7505C227.122 25.8974 227.073 26.0932 227.024 26.289C224.634 32.1147 221.902 36.7165 215.512 41.7589C215.512 41.7589 214.293 42.738 213.268 43.5702ZM179.707 63.3482C179.366 63.4461 178.976 63.3971 178.829 63.2013C178.634 63.0055 178.683 62.6628 178.78 62.467C179.805 59.6765 181.366 57.6204 183.024 55.4664L184 54.1935C184.78 53.2144 186.585 51.3052 187.366 50.4729C187.902 49.8365 188.976 49.0532 189.659 48.7105C190.293 48.3189 190.878 48.3189 191.122 48.4658C191.268 48.5637 191.317 48.6616 191.317 48.8574C191.073 52.0885 187.171 57.1308 185.902 58.7953C184.146 60.9983 180.683 63.1034 179.707 63.3482ZM155.122 49.249L155.317 49.0532C156.341 48.1231 157.024 47.7804 157.268 48.0252C157.415 48.0741 157.463 48.221 157.463 48.3679C157.463 48.5637 157.415 48.7595 157.317 49.0043C155.463 54.732 152.341 56.3965 149.512 57.6693C150.537 55.7601 153.512 50.5708 155.122 49.249ZM139.073 50.5708C138.878 51.3052 138.78 51.6968 138.244 52.8228C137.463 54.3404 136.634 55.5643 134.634 58.1099C133.073 60.0192 131.951 61.1941 130.878 62.0753C130.39 62.5649 129.756 62.9076 128.976 63.2992C128.341 63.5929 127.463 63.6419 127.171 63.495C126.683 63.2502 126.878 62.1243 127.659 60.5088C130.146 55.2705 137.122 47.3887 138.634 48.0741C139.415 48.5637 139.268 49.9834 139.073 50.5708ZM123.073 72.6496L123.902 71.8664C125.366 70.3977 127.024 69.0759 128.195 68.2437C127.317 69.9571 125.268 73.4819 122 77.1535C119.854 79.5523 117.512 81.1679 116.878 80.6783C116.78 80.5804 116.732 80.4825 116.732 80.3356V80.2867C116.732 78.818 120.537 75.0974 123.073 72.6496Z" fill="black"/>
<path d="M99.6098 44.5003C101.024 44.5492 102.488 43.7659 102.976 42.7379C103.22 42.2483 103.171 41.7588 102.927 41.3671C102.634 40.8776 102 40.5838 101.171 40.5349C99.7561 40.4859 98.2927 41.2692 97.8049 42.2973C97.561 42.7868 97.6098 43.2764 97.8537 43.668C98.1464 44.1576 98.7805 44.4513 99.6098 44.5003Z" fill="black"/>
<path d="M250.683 29.5202V26.8276H251.853C252.097 26.8276 252.292 26.8276 252.39 26.8766C252.536 26.9255 252.634 27.0235 252.683 27.1214C252.78 27.2193 252.78 27.3661 252.78 27.513C252.78 27.7088 252.731 27.8557 252.585 28.0026C252.487 28.1494 252.292 28.1984 252 28.2473C252.097 28.2963 252.146 28.3452 252.195 28.3942C252.292 28.4921 252.39 28.59 252.487 28.7369L252.927 29.4712H252.487L252.146 28.9327C252.048 28.7858 251.951 28.639 251.902 28.5411C251.853 28.4432 251.756 28.3942 251.707 28.3452C251.658 28.2963 251.609 28.2963 251.561 28.2963C251.512 28.2963 251.463 28.2963 251.366 28.2963H250.975V29.4712H250.683V29.5202ZM251.024 28.0026H251.805C251.951 28.0026 252.097 28.0026 252.195 27.9536C252.292 27.9047 252.341 27.8557 252.39 27.8067C252.439 27.7578 252.439 27.6599 252.439 27.562C252.439 27.4151 252.39 27.3172 252.292 27.2682C252.195 27.1703 252.048 27.1703 251.853 27.1703H251.024V28.0026Z" fill="black"/>
<path d="M251.756 30.352C250.536 30.352 249.512 29.324 249.512 28.1001C249.512 26.8762 250.536 25.8481 251.756 25.8481C252.975 25.8481 254 26.8762 254 28.1001C254 29.3729 252.975 30.352 251.756 30.352ZM251.756 25.995C250.585 25.995 249.658 26.9252 249.658 28.1001C249.658 29.275 250.585 30.2052 251.756 30.2052C252.926 30.2052 253.853 29.275 253.853 28.1001C253.853 26.9741 252.926 25.995 251.756 25.995Z" fill="black"/>
</g>
<defs>
<clipPath id="clip0_941_34471">
<rect width="254" height="82" fill="white"/>
</clipPath>
</defs>
</svg>
