<svg width="147" height="47" viewBox="0 0 147 47" fill="none" xmlns="http://www.w3.org/2000/svg">
<g clip-path="url(#clip0_463_591)">
<path d="M12.8835 7.26746C13.0241 5.41552 12.0677 4.34925 10.2393 4.34925C8.1858 4.34925 6.63865 6.08896 6.01979 9.5403C5.56971 12.0376 5.71036 14.3666 8.69214 14.3666C10.5768 14.3666 11.702 13.0478 12.2084 11.3642H17.8344C16.5123 15.966 12.7147 18.7158 8.01702 18.7158C2.10973 18.7158 -0.815782 15.0961 0.196896 9.34388C1.20957 3.59164 5.76662 0 10.7456 0C16.2028 0 18.7627 2.69373 18.4251 7.26746H12.8835Z" fill="#003366"/>
<path d="M27.3986 12.206H23.7135L26.6391 5.83644L27.3986 12.206ZM20.8443 18.2388L21.9132 15.9099H27.7361L28.0174 18.2388H33.8403L30.6054 0.448975H24.67L15.1339 18.2388H20.8443Z" fill="#003366"/>
<path d="M100.339 17.3127L99.0736 15.096C98.0609 13.4685 96.8795 11.9814 95.6417 10.6345C94.7978 9.7366 93.9258 8.92287 92.9975 8.16526L92.8288 8.02496C92.3787 7.66019 91.9286 7.32347 91.4785 7.01481C90.1845 6.1169 88.8624 5.35929 87.4841 4.7981L85.093 18.379H91.0003L92.0974 12.1217H93.8977C96.6544 12.1217 96.9076 12.9073 96.4856 15.2363C96.2043 16.8357 96.1481 17.9862 96.2325 18.379H100.846C100.705 18.0423 100.536 17.6775 100.339 17.3127Z" fill="#003366"/>
<path d="M96.7952 0.448975H88.2718L87.9624 2.16062C89.0032 2.66569 90.044 3.25494 91.0567 3.95644C91.8162 4.48957 92.5476 5.05077 93.2508 5.66808L93.4477 4.60181H96.2045C97.5828 4.60181 98.483 5.19106 98.258 6.48181C98.061 7.57614 97.2172 8.05315 95.7544 8.16539C96.8233 9.3439 97.8079 10.6627 98.6799 12.0657L99.9458 14.2824C100.649 15.6573 101.212 17.0603 101.634 18.4072H102.281C102.281 18.4072 101.887 17.0603 102.309 14.7033C102.956 11.0836 101.887 10.6346 100.086 9.93316C102.281 9.37196 103.518 7.6042 103.884 5.55584C104.475 2.04838 102.787 0.448975 96.7952 0.448975Z" fill="#003366"/>
<path d="M81.6893 4.23708C80.4516 4.2932 79.2982 4.5738 78.2856 5.02276C80.1421 5.49977 80.5078 7.74455 80.1421 9.87708C79.6077 12.8514 78.2293 15.0401 75.6976 15.0401C74.0661 15.0401 73.3066 14.086 73.0534 12.8234C73.0253 12.7111 72.9971 12.6269 72.9971 12.5428C72.9971 12.5428 72.9971 12.5428 72.9971 12.5147C72.9409 12.0938 72.9128 11.6729 72.9409 11.2239C72.9409 9.68067 73.1378 8.24962 73.5597 7.01499C74.1505 5.19111 75.1913 3.73201 76.5415 2.74992C77.8355 1.79589 79.4389 1.26276 81.2673 1.17858C81.4924 1.17858 81.7174 1.17858 81.9143 1.17858C80.9017 0.78574 79.6639 0.533203 78.2574 0.533203C72.6596 0.533203 68.1869 4.20902 67.1743 9.82096C66.1053 15.9099 69.2559 19.4174 74.91 19.4174C80.2265 19.4174 84.9805 15.966 86.0494 9.87708C86.3589 8.0532 86.2463 6.25738 85.5993 4.7141C84.2772 4.34932 82.9551 4.18096 81.6893 4.23708Z" fill="#003366"/>
<path d="M43.5451 12.3742C43.1513 12.4584 42.7575 12.5426 42.3636 12.6548L45.0641 18.2667H45.4861C45.6267 17.8459 45.7674 17.425 45.8518 17.0041C46.0768 15.9097 46.0768 15.8256 45.8799 14.7032C45.8236 14.4787 45.9643 14.2823 46.1331 14.2261C46.3018 14.1981 46.4706 14.2823 46.555 14.5629C46.7238 15.4327 46.7519 15.9097 46.7519 16.7235C46.7519 17.2285 46.7238 17.7617 46.6675 18.2667H50.5213L51.3371 13.6088C48.2428 12.262 45.8799 11.8972 43.5451 12.3742Z" fill="#003366"/>
<path d="M39.7477 12.9636L40.4228 8.58631L42.0543 11.9815C44.7829 11.1678 47.8491 11.252 51.1684 12.206C51.1684 12.206 51.3653 12.2621 51.5904 12.3182L53.672 0.477051H48.0741L46.5832 10.1857L41.9418 0.477051H36.4565L33.3059 18.2669H35.0218C35.5 17.369 36.0064 16.5553 36.5127 15.9099C37.5254 14.6191 38.5662 13.6651 39.7477 12.9636Z" fill="#003366"/>
<path d="M39.6069 13.9175C38.7911 14.4506 38.0035 15.2082 37.3284 16.1061C36.822 16.7515 36.3438 17.4811 35.9219 18.2667H38.9318L39.6069 13.9175Z" fill="#003366"/>
<path d="M54.4876 0.448975L53.6719 5.10688H58.9322L57.5257 12.9075C58.2571 12.7111 59.0166 12.4024 59.9167 11.9815C60.0574 11.9254 60.2262 11.9535 60.3387 12.0657C60.4231 12.1218 60.4512 12.234 60.4512 12.3182C60.4512 12.3463 60.4512 12.4024 60.4231 12.4305C59.8605 14.114 58.9603 14.9278 57.4132 15.1803C57.3288 15.2084 57.2162 15.2084 57.1319 15.2364L56.5974 18.2388H62.4484L64.7551 5.10688H70.0154L70.8311 0.448975H54.4876V0.448975Z" fill="#003366"/>
<path d="M39.7476 12.9635L39.6069 13.9456C39.6351 13.9176 39.6632 13.9176 39.6632 13.8895C40.6477 13.2161 41.4916 12.8793 42.3637 12.6268L42.0542 11.9534C41.2103 12.2059 40.4508 12.5426 39.7476 12.9635Z" fill="black"/>
<path d="M52.5186 12.599C52.5186 12.599 51.9841 12.4306 51.5903 12.3184L51.3652 13.6091C51.5621 13.6933 51.7872 13.8055 51.9841 13.8897L53.3625 14.507C54.9096 15.0963 56.1192 15.3207 57.1037 15.1804L57.4976 12.8796C55.9785 13.3004 54.572 13.1882 52.5186 12.599Z" fill="black"/>
<path d="M37.9754 26.6567C36.9909 26.9373 36.0626 26.825 35.4438 26.348C34.3467 25.4221 34.2904 23.9629 34.3186 23.3737C34.3467 21.9426 34.9655 20.0065 35.922 18.2388H35.0781C33.981 20.3994 33.1934 23.065 33.8122 24.9731C34.2342 26.32 34.9655 27.0776 36.147 27.4143C38.7631 28.1438 42.42 26.1235 44.3047 23.8226C45.9081 21.8865 46.5269 20.0346 46.7239 18.2388H45.5143C44.2203 21.8865 40.9572 25.6185 37.9754 26.6567Z" fill="black"/>
<path d="M49.2556 25.1414L49.4806 24.5522C49.4806 24.5522 49.6775 24.1032 49.7338 23.991C49.8182 23.9349 50.8027 23.4298 50.8027 23.4298C50.8027 23.4298 51.5622 23.0089 52.0123 22.7564C51.8998 23.0931 51.731 23.514 51.5622 23.8226C51.2528 24.4119 51.0277 24.9731 50.859 25.4501C50.3526 26.7408 49.9869 27.6668 48.1304 28.6208C47.9897 28.705 47.9616 28.7892 47.9616 28.8453C47.9616 28.8734 47.9616 28.9014 47.9897 28.9295C48.0741 29.0979 48.3273 29.0698 48.4679 29.0137C49.1993 28.7331 51.4497 27.7229 52.2655 26.7408C52.9968 25.899 52.9687 25.1976 52.9406 24.4119V23.5981L52.9687 23.0089C52.9968 22.2513 53.2781 21.9987 53.7282 21.634C54.0658 21.3253 54.5159 20.9325 54.9097 20.1749C55.0222 20.0065 55.0785 19.8101 55.0222 19.6417C54.9941 19.4734 54.8815 19.305 54.7128 19.1928C54.2908 18.9402 53.8689 19.277 53.7282 19.4453C53.4188 19.8381 52.9687 20.5396 52.4624 21.7181C52.378 21.7743 52.0685 21.9146 52.0685 21.9146C52.0685 21.9146 50.8027 22.5599 50.2401 22.8405C51.3934 20.1187 53.475 17.6214 55.9786 16.1062L55.9224 16.1343C56.0349 16.1062 56.1193 16.022 56.1474 15.9098C56.1755 15.7976 56.1193 15.7134 56.063 15.6573C56.0349 15.6292 55.9223 15.5731 55.7536 15.6573C53.1375 16.8638 50.9433 18.6035 48.6648 21.2131C47.8491 22.139 46.8926 23.4298 46.5269 24.019C46.4707 24.0471 46.105 24.2435 46.105 24.2435L44.3328 25.2256C42.1949 26.5164 39.2413 28.5928 37.9754 31.6793C37.6098 32.5773 37.3847 33.6435 37.3566 34.8501C37.3847 35.1307 37.5254 35.2429 37.666 35.2429C37.8067 35.2429 37.9473 35.1026 37.9754 34.8501C38.1161 30.108 42.9263 26.825 45.9925 25.1695C45.6549 25.8429 45.0079 27.1617 44.4735 28.0316L44.164 28.5367C41.773 32.3528 39.6914 35.6358 35.7813 36.0567C34.6842 36.197 32.9402 35.9164 31.7306 35.4113C31.4212 35.2429 30.6898 34.8782 30.8023 34.4853C30.8586 34.2328 30.943 34.2328 31.3649 34.2608H31.4774C32.0963 34.345 32.5745 33.9802 32.687 33.3068C32.7714 32.8859 32.6589 32.5211 32.4338 32.2125C32.1525 31.8477 31.7869 31.7074 31.3086 31.7635C30.5773 31.8758 30.0991 32.465 29.9303 32.9982C29.8459 33.2787 29.5646 34.345 30.4085 35.3271C31.6181 36.674 34.7405 36.8704 35.725 36.8143C41.9418 36.3653 46.4988 32.465 49.2556 25.1414Z" fill="black"/>
<path d="M133.758 30.3886C133.645 30.4167 133.561 30.5009 133.533 30.6131C132.52 33.8961 129.595 36.0286 128.329 36.2531C128.188 36.2812 127.907 36.3092 127.794 36.1689C127.71 36.0567 127.907 35.6919 128.132 35.2991L128.301 35.0185L141.775 14.7594H138.934C138.934 14.7594 130.664 27.1898 130.213 27.8633C130.129 27.4985 129.904 26.9934 129.201 26.7128C127.907 26.2358 125.853 26.9654 123.8 28.6209C122.534 29.631 121.268 31.034 120.059 32.3809C118.174 34.4573 116.402 36.4215 115.164 36.3654V36.3373C115.164 36.197 115.333 35.7481 115.727 35.2149L122.112 26.4883C124.25 24.9451 126.135 23.3737 127.119 22.3916C129.116 20.3713 131.845 16.8358 131.845 15.0961C131.845 15.04 131.845 15.0119 131.845 14.9558C131.789 14.1701 131.479 13.8054 130.832 13.7212C129.201 13.4406 124.953 18.8842 124.784 19.1086L118.68 26.9654C114.629 31.7355 109.425 36.2812 108.778 36.1128L108.75 36.0848V36.0567C108.75 35.8603 109.06 35.4394 109.313 35.1027L115.136 26.8251H112.295C112.295 26.8251 111.563 27.6949 111.226 28.0597C111.141 27.6949 110.944 27.1618 110.185 26.8812C108.525 26.2639 106.19 27.7791 104.925 28.7612C103.799 29.631 102.984 30.5851 102.337 31.3427C101.465 32.3528 100.902 33.0263 100.227 32.8018C99.7487 32.6334 99.6362 32.3528 99.5518 32.0442C99.5518 32.0442 99.5237 31.988 99.4956 31.9039C99.5518 31.8478 99.6362 31.7636 99.6362 31.7636C99.9456 31.4549 100.283 31.0901 100.733 30.3325C101.043 29.8555 101.127 29.3224 101.183 28.9576L101.24 28.7051C101.268 28.6209 101.268 28.5367 101.268 28.4245C101.268 27.9755 101.099 27.3301 100.649 27.1898C99.8894 26.8812 99.4956 27.6107 99.383 27.8633C99.2986 28.0597 99.1861 28.3964 98.9611 29.126C98.8486 29.603 98.6798 30.3325 98.6798 31.6513C98.5391 31.7355 96.8795 32.8298 96.8795 32.8298C96.8795 32.8298 96.5701 33.0824 96.2325 33.3349C96.5138 32.886 96.7951 32.4089 96.7951 32.4089L97.4702 31.3146C98.0047 30.4167 98.286 29.4627 98.286 28.677C98.286 28.4245 98.2578 28.1719 98.1735 27.9755C97.9765 27.4704 97.6952 27.246 97.1889 27.1618C96.7951 27.1337 96.4013 27.1898 95.9793 27.4143C94.9948 27.9475 94.2634 28.8173 93.1945 29.9958C92.5756 30.6973 91.8723 31.511 91.0003 32.4089C88.8343 34.5976 85.8244 36.3092 84.9805 36.2531L84.868 36.2251C84.8399 36.169 84.8117 36.1128 84.8117 36.0286C84.8117 35.6358 85.1493 34.9904 85.2899 34.7379C85.2899 34.7379 85.6275 34.1767 85.6838 34.0645C85.7682 34.0084 87.7654 32.9982 87.7654 32.9982L88.0185 32.8579C89.6501 31.9881 91.8442 30.7815 91.8442 28.5367C91.8442 28.4525 91.8442 28.3683 91.8442 28.2842C91.788 27.7791 91.6754 27.0776 90.9722 26.8251C89.3407 26.32 85.8807 29.3785 84.2773 31.0621L83.7709 31.5952C82.927 32.5212 81.2674 34.3731 78.9044 35.9164C79.664 34.794 84.8961 26.8812 84.8961 26.8812H82.2519C82.2519 26.8812 81.4361 27.8913 80.9861 28.4245V28.3964C80.9861 28.1158 80.9298 27.8072 80.7892 27.5266C80.5922 27.1618 80.3109 26.9373 79.889 26.8251C77.6386 26.2639 73.6723 29.5188 71.5063 32.7737C70.3811 34.4573 69.706 34.9624 68.6089 34.9343L68.1026 34.8782C67.6806 34.8221 67.1743 34.7379 66.3585 34.8221C67.2587 34.2048 68.5526 33.2507 69.1715 31.8478L69.7622 30.5851C70.1279 29.9116 70.5499 29.2101 71.1406 28.8454L71.3094 28.7612L71.872 28.5367L71.9564 28.5086C72.2377 28.4245 72.7159 28.2561 72.8565 27.9475V27.5827L72.6596 27.274C72.2658 26.9373 71.7313 27.5266 71.5063 27.751C71.3375 27.9475 70.9718 28.2 70.7468 28.1719C70.6061 28.1439 70.4936 28.0597 70.3529 27.9194L69.7622 27.4985C69.3684 27.2179 69.059 27.1618 68.6652 27.1337C67.0617 27.0776 66.2741 28.1439 64.8113 30.08L62.9266 32.5212C61.5201 34.2048 59.101 36.3092 58.2571 36.3373C58.2571 36.1689 58.454 35.6919 58.7915 35.1869C58.7915 35.1869 65.1208 25.5343 65.6552 24.7486C65.824 24.7486 67.5118 24.7767 67.5118 24.7767C67.8213 24.7767 68.4682 24.3558 68.4682 24.0752C68.4682 23.991 68.4401 23.9349 68.3557 23.8788L68.1869 23.8507H66.1897C66.4991 23.3737 69.5934 18.7439 69.5934 18.7439H67.3993C67.3993 18.7439 64.1362 23.7104 64.0237 23.8507H62.6453C62.3078 23.8507 61.6327 24.2716 61.6327 24.5522C61.6327 24.6364 61.6608 24.6925 61.7452 24.7206L61.914 24.7486C61.914 24.7486 62.9266 24.7206 63.4892 24.7206C63.2642 25.0012 62.9548 25.4221 62.9548 25.4221C62.6172 25.843 59.2135 29.5749 56.3724 32.4931C54.1782 34.766 51.956 36.5057 51.5621 36.3373C51.5621 36.3373 51.5621 36.3092 51.5621 36.2812C51.5621 36.1409 51.6747 35.7761 52.0966 35.1588L57.582 26.9934H54.8252L54.769 27.0495C54.5721 27.2179 54.0938 27.8072 53.5031 28.5367L52.0966 30.1642L51.956 30.3325C47.5677 35.3272 45.4017 36.2531 44.3609 36.1128C44.0796 36.0848 43.9389 36.1128 43.8827 36.197L43.8264 36.2812L43.8545 36.3934C43.9389 36.5618 44.3609 36.674 44.6141 36.7021C46.8363 36.8143 50.4651 33.0824 52.5186 30.7815C51.534 32.3809 50.4088 34.317 50.4088 35.6358C50.4088 35.7481 50.4088 35.8884 50.437 36.0006C50.5213 36.5337 50.8589 36.8704 51.4215 37.0388C52.5748 37.4316 56.2036 33.7839 56.8506 33.0543C57.9476 31.8478 59.4385 30.3045 60.5075 29.1821C60.1699 29.6591 59.8323 30.1922 59.8323 30.1922C58.4259 32.2125 57.16 34.2609 57.16 35.6919C57.16 35.8042 57.16 35.9164 57.1881 36.0286C57.3288 36.5618 57.6382 36.9266 58.1727 37.0669C59.326 37.4597 62.1109 34.6818 63.5736 32.9982C64.4457 31.9881 65.0364 31.1463 65.4583 30.5289C65.8803 29.9397 66.1616 29.5188 66.4148 29.3785C67.0336 28.9576 67.2305 29.0418 67.6243 29.1821L68.1307 29.3224C68.5245 29.4066 68.8621 29.3785 69.2559 29.3224C68.2713 29.9958 67.0899 30.9218 66.3866 32.4651L66.1616 32.8298L66.0491 33.0263C65.7115 33.6436 64.952 34.9343 64.727 35.1869C64.6426 35.2149 63.5736 35.6078 63.5736 35.6078L63.3767 35.6919C63.0392 35.8322 62.4766 36.0567 62.4766 36.5057C62.4766 36.5618 62.4766 36.646 62.5047 36.7021C62.561 36.9266 62.7297 37.0107 62.8423 37.0388C63.1798 37.123 63.6018 36.8704 63.8831 36.6179C64.2769 36.2812 64.7551 35.9725 64.8395 35.9164C65.2614 35.7761 65.4583 36.0006 65.7396 36.2812C65.9928 36.5618 66.3304 36.8704 66.893 36.9827C67.765 37.0949 69.6216 36.7582 72.097 33.2227C72.2658 32.9701 72.4346 32.7737 72.5752 32.5492C72.2658 33.391 72.0689 34.2609 72.0689 35.0185C72.0689 35.2991 72.097 35.5797 72.1533 35.8322C72.2939 36.5057 72.6877 36.9827 73.2785 37.0949C74.1505 37.3194 75.0225 36.8704 75.8102 36.2531C75.2194 37.0107 74.6287 37.7684 74.6287 37.7684L71.9564 39.6764L71.4219 40.0692C69.1715 41.7248 66.1053 43.9696 66.4429 45.9057C66.5273 46.523 66.9211 46.7755 67.4556 46.9439C69.1434 47.449 74.0098 42.4263 74.9663 41.0794C75.0506 40.9672 77.3854 38.2454 77.8918 37.5158C80.8173 35.6639 82.927 33.5875 83.8835 32.5492C83.574 33.4472 83.4052 34.2328 83.4052 34.8782C83.4052 35.271 83.4615 35.6078 83.574 35.9164C83.7709 36.5337 84.2773 36.9266 84.9805 36.9827C86.1057 37.0669 89.1437 35.3272 91.5067 32.886L93.4195 30.7534C94.8823 29.0698 96.1481 27.6388 96.992 27.8352C96.992 27.8352 96.992 27.8352 96.992 27.8633C96.992 27.9475 96.9357 28.2 96.5419 28.8454L91.1128 37.0388H93.7289L94.3759 36.0848C94.9666 35.2149 96.767 33.7558 97.1889 33.4472L98.0328 32.8579C98.0328 32.8579 98.5954 32.4651 98.8204 32.3248V32.3528C99.0174 32.7737 99.1861 33.1666 99.9456 33.4752C100.649 33.7558 101.408 33.1666 101.915 32.6615C101.746 33.2227 101.549 34.0084 101.549 34.766C101.549 35.0185 101.577 35.243 101.605 35.4675C101.746 36.2531 102.112 36.5898 102.674 36.9266C103.743 37.4878 105.712 36.0286 107.203 34.7098C107.175 34.9063 107.147 35.1307 107.147 35.2991C107.147 36.4215 107.625 36.7021 108.103 36.8985L108.16 36.9266C109.594 37.4036 113.279 33.8119 116.092 30.7254C114.939 32.437 113.926 34.1767 113.926 35.5236C113.926 35.6639 113.926 35.8322 113.954 35.9725C114.039 36.4776 114.404 36.8424 114.967 37.0107C116.008 37.3755 118.596 35.1588 120.677 32.6615C120.509 33.2507 120.368 33.9803 120.368 34.6537C120.368 34.9063 120.396 35.1588 120.424 35.4113C120.565 36.197 120.931 36.5618 121.549 36.8985C122.59 37.4597 124.503 36.0286 126.106 34.6537C126.078 34.8782 126.05 35.0746 126.05 35.271C126.05 36.5057 126.641 36.7582 127.035 36.8985L127.091 36.9266C128.441 37.3755 132.464 35.4955 134.011 30.7534C134.039 30.6412 134.011 30.5289 133.955 30.4448C134.011 30.4167 133.87 30.3606 133.758 30.3886ZM122.562 36.3373C122.365 36.3934 122.14 36.3654 122.056 36.2531C121.943 36.1409 121.971 35.9725 122.028 35.8322C122.618 34.1767 123.547 32.9701 124.531 31.7075L125.094 30.9779C125.572 30.4167 126.472 29.3785 127.063 28.8173C127.372 28.4806 127.963 28.0036 128.413 27.7791C128.779 27.5546 129.145 27.5546 129.285 27.6388C129.313 27.6669 129.37 27.723 129.37 27.8352C129.313 28.677 128.723 30.3886 126.219 33.6436C125.122 34.9624 123.125 36.1689 122.562 36.3373ZM122.984 24.9731C123.828 23.6543 127.035 18.6877 127.035 18.6877C127.851 17.3689 129.763 14.2824 130.917 14.563L130.945 14.591C130.973 14.6191 130.973 14.7033 130.973 14.7594C130.973 14.8436 130.945 14.9558 130.917 15.068C129.538 18.4071 127.963 21.0448 124.278 23.9349C124.278 23.9349 123.575 24.4961 122.984 24.9731ZM103.631 36.3092C103.434 36.3654 103.209 36.3373 103.124 36.2251C103.012 36.1128 103.04 35.9164 103.096 35.8042C103.687 34.2048 104.587 33.0263 105.544 31.7916L106.106 31.0621C106.556 30.5009 107.597 29.4066 108.047 28.9295C108.356 28.5648 108.975 28.1158 109.369 27.9194C109.735 27.6949 110.072 27.6949 110.213 27.7791C110.297 27.8352 110.326 27.8913 110.326 28.0036C110.185 29.8555 107.935 32.7457 107.203 33.6997C106.19 34.9624 104.193 36.1689 103.631 36.3092ZM89.4532 28.228L89.5657 28.1158C90.1564 27.5827 90.5502 27.3863 90.6909 27.5266C90.7753 27.5546 90.8034 27.6388 90.8034 27.723C90.8034 27.8352 90.7753 27.9475 90.719 28.0878C89.6501 31.3707 87.8498 32.3248 86.2182 33.0543C86.809 31.96 88.5249 28.9857 89.4532 28.228ZM80.1984 28.9857C80.0859 29.4066 80.0296 29.631 79.7202 30.2764C79.2701 31.1463 78.7919 31.8478 77.6386 33.3069C76.7384 34.4012 76.0915 35.0746 75.4726 35.5797C75.1913 35.8603 74.8256 36.0567 74.3755 36.2812C74.0098 36.4495 73.5035 36.4776 73.3347 36.3934C73.0534 36.2531 73.1659 35.6078 73.616 34.6818C75.0507 31.6794 79.0732 27.1618 79.9453 27.5546C80.3953 27.8352 80.3109 28.6489 80.1984 28.9857ZM70.9718 41.6406L71.45 41.1916C72.2939 40.3498 73.2503 39.5922 73.9254 39.1152C73.4191 40.0973 72.2377 42.1176 70.3529 44.2221C69.1152 45.597 67.765 46.523 67.3993 46.2424C67.343 46.1863 67.3149 46.1301 67.3149 46.046V46.0179C67.3149 45.1761 69.509 43.0436 70.9718 41.6406Z" fill="black"/>
<path d="M57.4414 25.5065C58.2572 25.5346 59.1011 25.0856 59.3824 24.4964C59.523 24.2158 59.4949 23.9352 59.3542 23.7107C59.1855 23.4301 58.8198 23.2617 58.3415 23.2337C57.5258 23.2056 56.6819 23.6546 56.4006 24.2438C56.2599 24.5244 56.2881 24.805 56.4287 25.0295C56.5975 25.3101 56.9632 25.4784 57.4414 25.5065Z" fill="black"/>
<path d="M144.56 16.92V15.3767H145.235C145.376 15.3767 145.488 15.3767 145.544 15.4048C145.629 15.4328 145.685 15.4889 145.713 15.5451C145.769 15.6012 145.769 15.6854 145.769 15.7695C145.769 15.8818 145.741 15.966 145.657 16.0501C145.601 16.1343 145.488 16.1624 145.319 16.1904C145.376 16.2185 145.404 16.2466 145.432 16.2746C145.488 16.3307 145.544 16.3869 145.601 16.471L145.854 16.8919H145.601L145.404 16.5833C145.347 16.4991 145.291 16.4149 145.263 16.3588C145.235 16.3027 145.179 16.2746 145.151 16.2466C145.122 16.2185 145.094 16.2185 145.066 16.2185C145.038 16.2185 145.01 16.2185 144.954 16.2185H144.729V16.8919H144.56V16.92ZM144.757 16.0501H145.207C145.291 16.0501 145.376 16.0501 145.432 16.0221C145.488 15.994 145.516 15.966 145.544 15.9379C145.573 15.9098 145.572 15.8537 145.572 15.7976C145.572 15.7134 145.544 15.6573 145.488 15.6292C145.432 15.5731 145.347 15.5731 145.235 15.5731H144.757V16.0501Z" fill="black"/>
<path d="M145.179 17.3972C144.475 17.3972 143.885 16.8079 143.885 16.1064C143.885 15.4049 144.475 14.8157 145.179 14.8157C145.882 14.8157 146.473 15.4049 146.473 16.1064C146.473 16.836 145.882 17.3972 145.179 17.3972ZM145.179 14.8999C144.503 14.8999 143.969 15.433 143.969 16.1064C143.969 16.7799 144.503 17.313 145.179 17.313C145.854 17.313 146.388 16.7799 146.388 16.1064C146.388 15.461 145.854 14.8999 145.179 14.8999Z" fill="black"/>
</g>
<defs>
<clipPath id="clip0_463_591">
<rect width="146.473" height="47" fill="white"/>
</clipPath>
</defs>
</svg>
