<svg width="156" height="51" viewBox="0 0 156 51" fill="none" xmlns="http://www.w3.org/2000/svg">
<g clip-path="url(#clip0_463_3942)">
<path d="M13.7059 7.7843C13.8555 5.80065 12.838 4.65856 10.8929 4.65856C8.70833 4.65856 7.06243 6.52198 6.40407 10.2188C5.92526 12.8937 6.07489 15.3883 9.24699 15.3883C11.252 15.3883 12.449 13.9757 12.9877 12.1724H18.9728C17.5663 17.1014 13.5263 20.0468 8.52878 20.0468C2.24443 20.0468 -0.867822 16.1697 0.209495 10.0084C1.28681 3.84707 6.13474 0 11.4315 0C17.2371 0 19.9603 2.8853 19.6012 7.7843H13.7059Z" fill="white"/>
<path d="M29.1474 13.0741H25.2271L28.3394 6.25156L29.1474 13.0741ZM22.1747 19.536L23.3119 17.0414H29.5065L29.8057 19.536H36.0003L32.5589 0.480957H26.2446L16.0999 19.536H22.1747Z" fill="white"/>
<path d="M106.744 18.544L105.397 16.1697C104.32 14.4265 103.063 12.8335 101.746 11.3909C100.849 10.4291 99.921 9.55752 98.9335 8.74603L98.7539 8.59575C98.2751 8.20504 97.7963 7.84437 97.3175 7.51377C95.9409 6.552 94.5344 5.74051 93.0681 5.1394L90.5244 19.6861H96.8088L97.9759 12.9838H99.8911C102.824 12.9838 103.093 13.8254 102.644 16.3199C102.345 18.0331 102.285 19.2654 102.375 19.6861H107.283C107.133 19.3255 106.953 18.9347 106.744 18.544Z" fill="white"/>
<path d="M102.974 0.480957H93.9061L93.5769 2.31432C94.6841 2.85532 95.7914 3.48648 96.8687 4.23786C97.6767 4.80891 98.4548 5.41001 99.2029 6.07123L99.4124 4.92913H102.345C103.811 4.92913 104.769 5.56029 104.53 6.94283C104.32 8.11498 103.422 8.62592 101.866 8.74614C103.003 10.0085 104.051 11.4211 104.979 12.9238L106.325 15.2982C107.073 16.7709 107.672 18.2736 108.121 19.7163H108.809C108.809 19.7163 108.39 18.2736 108.839 15.749C109.527 11.8719 108.39 11.391 106.475 10.6396C108.809 10.0385 110.126 8.14503 110.515 5.951C111.143 2.1941 109.348 0.480957 102.974 0.480957Z" fill="white"/>
<path d="M86.9036 4.53833C85.5869 4.59844 84.36 4.89899 83.2827 5.37988C85.2577 5.89082 85.6468 8.29523 85.2577 10.5794C84.6891 13.7653 83.2228 16.1096 80.5295 16.1096C78.7938 16.1096 77.9859 15.0877 77.7165 13.7352C77.6866 13.615 77.6567 13.5248 77.6567 13.4347C77.6567 13.4347 77.6567 13.4347 77.6567 13.4046C77.5968 12.9538 77.5669 12.503 77.5968 12.0221C77.5968 10.369 77.8063 8.83623 78.2552 7.5138C78.8836 5.56021 79.9909 3.99734 81.4273 2.94541C82.8039 1.92353 84.5096 1.35248 86.4548 1.26231C86.6942 1.26231 86.9336 1.26231 87.143 1.26231C86.0657 0.841542 84.749 0.571045 83.2527 0.571045C77.2976 0.571045 72.5394 4.50828 71.4621 10.5193C70.3249 17.0413 73.6766 20.7982 79.6916 20.7982C85.3475 20.7982 90.4049 17.1014 91.5421 10.5794C91.8713 8.62584 91.7516 6.70231 91.0633 5.04927C89.6568 4.65855 88.2503 4.47822 86.9036 4.53833Z" fill="white"/>
<path d="M46.3247 13.2544C45.9058 13.3445 45.4868 13.4347 45.0679 13.5549L47.9407 19.566H48.3896C48.5392 19.1151 48.6888 18.6643 48.7786 18.2135C49.018 17.0413 49.018 16.9512 48.8086 15.749C48.7487 15.5085 48.8983 15.2981 49.0779 15.238C49.2574 15.208 49.437 15.2981 49.5268 15.5987C49.7063 16.5304 49.7362 17.0413 49.7362 17.9129C49.7362 18.4539 49.7063 19.025 49.6465 19.566H53.7463L54.6141 14.5768C51.3223 13.1342 48.8086 12.7434 46.3247 13.2544Z" fill="white"/>
<path d="M42.2848 13.8853L43.003 9.1967L44.7387 12.8334C47.6415 11.9618 50.9033 12.0519 54.4346 13.0738C54.4346 13.0738 54.644 13.1339 54.8834 13.194L57.0979 0.510742H51.1428L49.5567 10.9098L44.619 0.510742H38.7835L35.4319 19.5657H37.2573C37.7661 18.604 38.3047 17.7324 38.8434 17.0411C39.9207 15.6586 41.0279 14.6367 42.2848 13.8853Z" fill="white"/>
<path d="M42.1348 14.9075C41.267 15.4785 40.4291 16.29 39.7109 17.2518C39.1722 17.943 38.6635 18.7245 38.2146 19.566H41.4166L42.1348 14.9075Z" fill="white"/>
<path d="M57.9655 0.480957L57.0977 5.47012H62.6937L61.1974 13.8255C61.9755 13.6151 62.7835 13.2845 63.7411 12.8336C63.8907 12.7735 64.0703 12.8036 64.19 12.9238C64.2798 12.9839 64.3097 13.1041 64.3097 13.1943C64.3097 13.2244 64.3097 13.2845 64.2798 13.3145C63.6813 15.1178 62.7236 15.9894 61.0777 16.2599C60.988 16.29 60.8683 16.29 60.7785 16.3201L60.2099 19.536H66.4344L68.8883 5.47012H74.4844L75.3522 0.480957H57.9655Z" fill="white"/>
<path d="M42.2846 13.8855L42.135 14.9374C42.1649 14.9073 42.1949 14.9073 42.1949 14.8773C43.2422 14.156 44.14 13.7953 45.0677 13.5248L44.7385 12.8035C43.8408 13.074 43.0328 13.4346 42.2846 13.8855Z" fill="white"/>
<path d="M55.8707 13.4946C55.8707 13.4946 55.3022 13.3143 54.8832 13.1941L54.6438 14.5766C54.8533 14.6668 55.0927 14.787 55.3022 14.8772L56.7685 15.5384C58.4144 16.1696 59.7012 16.41 60.7486 16.2597L61.1675 13.7952C59.5516 14.246 58.0553 14.1258 55.8707 13.4946Z" fill="white"/>
<path d="M40.3994 28.5524C39.352 28.853 38.3644 28.7328 37.7061 28.2218C36.539 27.23 36.4791 25.6671 36.5091 25.036C36.539 23.5032 37.1973 21.4294 38.2148 19.5359H37.317C36.15 21.8501 35.312 24.7054 35.9704 26.7491C36.4193 28.1918 37.1973 29.0033 38.4542 29.3639C41.2373 30.1454 45.1276 27.9814 47.1326 25.5169C48.8384 23.4431 49.4967 21.4594 49.7062 19.5359H48.4194C47.0428 23.4431 43.5715 27.4404 40.3994 28.5524Z" fill="white"/>
<path d="M52.3996 26.9294L52.639 26.2983C52.639 26.2983 52.8485 25.8174 52.9084 25.6972C52.9981 25.637 54.0455 25.0961 54.0455 25.0961C54.0455 25.0961 54.8535 24.6452 55.3323 24.3747C55.2126 24.7354 55.0331 25.1862 54.8535 25.5168C54.5243 26.148 54.2849 26.7491 54.1054 27.26C53.5667 28.6426 53.1777 29.6344 51.2026 30.6563C51.053 30.7464 51.0231 30.8366 51.0231 30.8967C51.0231 30.9268 51.0231 30.9568 51.053 30.9869C51.1428 31.1672 51.4121 31.1372 51.5617 31.077C52.3398 30.7765 54.7338 29.6945 55.6016 28.6426C56.3797 27.7409 56.3498 26.9895 56.3199 26.148V25.2764L56.3498 24.6452C56.3797 23.8337 56.679 23.5632 57.1578 23.1725C57.5169 22.8419 57.9957 22.4211 58.4146 21.6097C58.5343 21.4293 58.5942 21.2189 58.5343 21.0386C58.5044 20.8583 58.3847 20.6779 58.2052 20.5577C57.7563 20.2872 57.3074 20.6479 57.1578 20.8282C56.8286 21.249 56.3498 22.0004 55.8111 23.2627C55.7213 23.3228 55.3922 23.4731 55.3922 23.4731C55.3922 23.4731 54.0455 24.1643 53.447 24.4649C54.674 21.5495 56.8884 18.8746 59.5518 17.2516L59.492 17.2817C59.6117 17.2516 59.7014 17.1615 59.7314 17.0413C59.7613 16.921 59.7014 16.8309 59.6416 16.7708C59.6117 16.7407 59.492 16.6806 59.3124 16.7708C56.5293 18.0631 54.1952 19.9266 51.7712 22.7217C50.9033 23.7135 49.8859 25.0961 49.4969 25.7272C49.437 25.7573 49.048 25.9677 49.048 25.9677L47.1627 27.0196C44.8883 28.4021 41.7462 30.6262 40.3995 33.9323C40.0105 34.8941 39.7711 36.0361 39.7411 37.3285C39.7711 37.6291 39.9207 37.7493 40.0703 37.7493C40.22 37.7493 40.3696 37.599 40.3995 37.3285C40.5491 32.2492 45.6664 28.7327 48.9283 26.9595C48.5692 27.6808 47.8809 29.0934 47.3123 30.0251L46.9831 30.5661C44.4394 34.6536 42.225 38.1701 38.0653 38.6209C36.8982 38.7712 35.0429 38.4706 33.7561 37.9296C33.4269 37.7493 32.6488 37.3586 32.7685 36.9378C32.8284 36.6673 32.9181 36.6673 33.367 36.6974H33.4867C34.1451 36.7875 34.6538 36.3968 34.7735 35.6755C34.8633 35.2247 34.7436 34.8339 34.5042 34.5033C34.2049 34.1126 33.8159 33.9623 33.3072 34.0225C32.5291 34.1427 32.0204 34.7738 31.8408 35.3449C31.751 35.6454 31.4518 36.7875 32.3496 37.8395C33.6364 39.2821 36.9581 39.4925 38.0055 39.4324C44.619 38.9515 49.4669 34.7738 52.3996 26.9294Z" fill="white"/>
<path d="M142.296 32.5498C142.176 32.5799 142.086 32.67 142.056 32.7903C140.979 36.3067 137.867 38.5909 136.52 38.8314C136.37 38.8614 136.071 38.8915 135.951 38.7412C135.862 38.621 136.071 38.2302 136.31 37.8095L136.49 37.5089L150.824 15.8091H147.802C147.802 15.8091 139.004 29.1235 138.525 29.8448C138.435 29.4541 138.196 28.9131 137.448 28.6126C136.071 28.1016 133.886 28.8831 131.702 30.6563C130.355 31.7383 129.009 33.2411 127.722 34.6837C125.717 36.9078 123.831 39.0117 122.515 38.9516V38.9215C122.515 38.7712 122.694 38.2904 123.113 37.7193L129.906 28.3721C132.181 26.7191 134.186 25.036 135.233 23.9841C137.358 21.8201 140.261 18.0331 140.261 16.1697C140.261 16.1096 140.261 16.0796 140.261 16.0194C140.201 15.1779 139.872 14.7872 139.183 14.697C137.448 14.3965 132.929 20.2272 132.749 20.4676L126.255 28.8831C121.946 33.9925 116.41 38.8614 115.722 38.6811L115.692 38.651V38.621C115.692 38.4106 116.021 37.9598 116.29 37.5991L122.485 28.7328H119.462C119.462 28.7328 118.684 29.6645 118.325 30.0552C118.235 29.6645 118.026 29.0935 117.218 28.7929C115.452 28.1317 112.969 29.7547 111.622 30.8066C110.425 31.7383 109.557 32.7602 108.869 33.5717C107.941 34.6537 107.343 35.375 106.624 35.1346C106.116 34.9542 105.996 34.6537 105.906 34.3231C105.906 34.3231 105.876 34.263 105.846 34.1728C105.906 34.1127 105.996 34.0225 105.996 34.0225C106.325 33.6919 106.684 33.3012 107.163 32.4897C107.492 31.9788 107.582 31.4077 107.642 31.017L107.702 30.7465C107.732 30.6563 107.732 30.5662 107.732 30.446C107.732 29.9651 107.552 29.2738 107.073 29.1235C106.265 28.7929 105.846 29.5743 105.727 29.8448C105.637 30.0552 105.517 30.4159 105.278 31.1973C105.158 31.7083 104.978 32.4897 104.978 33.9023C104.829 33.9925 103.063 35.1646 103.063 35.1646C103.063 35.1646 102.734 35.4351 102.375 35.7056C102.674 35.2247 102.973 34.7138 102.973 34.7138L103.692 33.5416C104.26 32.5799 104.559 31.558 104.559 30.7164C104.559 30.4459 104.53 30.1755 104.44 29.9651C104.23 29.4241 103.931 29.1836 103.392 29.0935C102.973 29.0634 102.554 29.1235 102.106 29.364C101.058 29.935 100.28 30.8667 99.143 32.129C98.4846 32.8804 97.7365 33.752 96.8088 34.7138C94.5045 37.0581 91.3025 38.8915 90.4047 38.8314L90.285 38.8013C90.2551 38.7412 90.2252 38.6811 90.2252 38.5909C90.2252 38.1701 90.5843 37.4789 90.7339 37.2084C90.7339 37.2084 91.093 36.6073 91.1529 36.487C91.2427 36.4269 93.3674 35.3449 93.3674 35.3449L93.6367 35.1947C95.3724 34.263 97.7066 32.9706 97.7066 30.5662C97.7066 30.476 97.7066 30.3858 97.7066 30.2957C97.6467 29.7547 97.527 29.0033 96.7789 28.7328C95.0432 28.1918 91.3624 31.4678 89.6566 33.2711L89.1179 33.8422C88.2202 34.834 86.4546 36.8177 83.9408 38.4707C84.7488 37.2685 90.315 28.7929 90.315 28.7929H87.502C87.502 28.7929 86.6341 29.8749 86.1553 30.446V30.4159C86.1553 30.1153 86.0955 29.7847 85.9458 29.4842C85.7364 29.0935 85.4371 28.853 84.9882 28.7328C82.5942 28.1317 78.3747 31.6181 76.0704 35.1045C74.8734 36.9078 74.1552 37.4488 72.9881 37.4188L72.4495 37.3586C72.0006 37.2985 71.4619 37.2084 70.5941 37.2985C71.5517 36.6373 72.9283 35.6154 73.5866 34.1127L74.2151 32.7602C74.6041 32.0389 75.053 31.2875 75.6814 30.8968L75.861 30.8066L76.4595 30.5662L76.5492 30.5361C76.8485 30.4459 77.3572 30.2656 77.5069 29.935V29.5443L77.2974 29.2137C76.8784 28.853 76.3098 29.4842 76.0704 29.7246C75.8909 29.935 75.5019 30.2055 75.2625 30.1755C75.1128 30.1454 74.9931 30.0552 74.8435 29.905L74.2151 29.4541C73.7961 29.1536 73.4669 29.0935 73.048 29.0634C71.3422 29.0033 70.5043 30.1454 68.9482 32.2192L66.9432 34.834C65.4469 36.6373 62.8733 38.8915 61.9755 38.9215C61.9755 38.7412 62.185 38.2302 62.5441 37.6893C62.5441 37.6893 69.2774 27.3503 69.8459 26.5087C70.0255 26.5087 71.821 26.5388 71.821 26.5388C72.1502 26.5388 72.8385 26.0879 72.8385 25.7874C72.8385 25.6972 72.8086 25.6371 72.7188 25.577L72.5392 25.547H70.4145C70.7437 25.036 74.0355 20.0769 74.0355 20.0769H71.7013C71.7013 20.0769 68.23 25.3967 68.1103 25.547H66.6439C66.2848 25.547 65.5666 25.9978 65.5666 26.2983C65.5666 26.3885 65.5965 26.4486 65.6863 26.4787L65.8659 26.5087C65.8659 26.5087 66.9432 26.4787 67.5417 26.4787C67.3023 26.7792 66.9731 27.23 66.9731 27.23C66.614 27.6809 62.993 31.6782 59.9705 34.804C57.6363 37.2384 55.2722 39.1019 54.8533 38.9215C54.8533 38.9215 54.8533 38.8915 54.8533 38.8614C54.8533 38.7111 54.973 38.3204 55.4219 37.6592L61.2573 28.9131H58.3246L58.2648 28.9732C58.0553 29.1536 57.5466 29.7847 56.9181 30.5662L55.4219 32.3094L55.2722 32.4897C50.6039 37.8395 48.2996 38.8314 47.1924 38.6811C46.8931 38.651 46.7435 38.6811 46.6836 38.7712L46.6238 38.8614L46.6537 38.9816C46.7435 39.162 47.1924 39.2822 47.4617 39.3122C49.8258 39.4325 53.6862 35.4351 55.8707 32.9706C54.8234 34.6837 53.6263 36.7575 53.6263 38.1701C53.6263 38.2904 53.6263 38.4406 53.6563 38.5609C53.746 39.1319 54.1051 39.4926 54.7037 39.6729C55.9306 40.0937 59.791 36.1865 60.4793 35.4051C61.6464 34.1127 63.2324 32.4596 64.3696 31.2574C64.0105 31.7684 63.6514 32.3394 63.6514 32.3394C62.1551 34.5034 60.8084 36.6974 60.8084 38.2302C60.8084 38.3505 60.8085 38.4707 60.8384 38.5909C60.988 39.162 61.3172 39.5527 61.8858 39.703C63.1127 40.1237 66.0753 37.1483 67.6315 35.3449C68.5591 34.263 69.1876 33.3613 69.6365 32.7001C70.0853 32.0689 70.3846 31.6181 70.6539 31.4678C71.3123 31.017 71.5218 31.1072 71.9407 31.2574L72.4794 31.4077C72.8983 31.4979 73.2574 31.4678 73.6764 31.4077C72.629 32.129 71.3721 33.1209 70.624 34.7739L70.3846 35.1646L70.2649 35.375C69.9058 36.0362 69.0978 37.4188 68.8584 37.6893C68.7686 37.7193 67.6315 38.1401 67.6315 38.1401L67.422 38.2302C67.0629 38.3805 66.4644 38.621 66.4644 39.1019C66.4644 39.162 66.4644 39.2521 66.4943 39.3122C66.5541 39.5527 66.7337 39.6428 66.8534 39.6729C67.2125 39.7631 67.6614 39.4926 67.9606 39.2221C68.3796 38.8614 68.8883 38.5308 68.9781 38.4707C69.427 38.3204 69.6365 38.5609 69.9357 38.8614C70.205 39.162 70.5642 39.4926 71.1627 39.6128C72.0904 39.733 74.0654 39.3723 76.6989 35.5854C76.8784 35.3149 77.058 35.1045 77.2076 34.8641C76.8784 35.7657 76.669 36.6974 76.669 37.5089C76.669 37.8095 76.6989 38.11 76.7587 38.3805C76.9084 39.1018 77.3273 39.6128 77.9557 39.733C78.8834 39.9734 79.8111 39.4926 80.649 38.8314C80.0206 39.6428 79.3922 40.4543 79.3922 40.4543L76.5492 42.4981L75.9807 42.9189C73.5866 44.6921 70.3247 47.0965 70.6839 49.1703C70.7736 49.8316 71.1926 50.1021 71.7612 50.2824C73.5567 50.8234 78.7338 45.4435 79.7513 44.0008C79.841 43.8806 82.3249 40.9653 82.8635 40.1838C85.9758 38.2002 88.2202 35.9761 89.2376 34.8641C88.9085 35.8258 88.7289 36.6674 88.7289 37.3586C88.7289 37.7794 88.7888 38.1401 88.9085 38.4707C89.1179 39.1319 89.6566 39.5527 90.4047 39.6128C91.6018 39.703 94.8337 37.8395 97.3474 35.2247L99.3824 32.9405C100.939 31.1372 102.285 29.6044 103.183 29.8148C103.183 29.8148 103.183 29.8148 103.183 29.8448C103.183 29.935 103.123 30.2055 102.704 30.8968L96.9285 39.6729H99.7116L100.4 38.651C101.028 37.7193 102.944 36.1564 103.392 35.8258L104.29 35.1947C104.29 35.1947 104.889 34.7739 105.128 34.6236V34.6537C105.338 35.1045 105.517 35.5253 106.325 35.8559C107.073 36.1564 107.881 35.5253 108.42 34.9843C108.24 35.5854 108.031 36.4269 108.031 37.2384C108.031 37.5089 108.061 37.7494 108.091 37.9898C108.24 38.8314 108.629 39.192 109.228 39.5527C110.365 40.1538 112.46 38.5909 114.046 37.1783C114.016 37.3887 113.986 37.6291 113.986 37.8095C113.986 39.0117 114.495 39.3122 115.003 39.5226L115.063 39.5527C116.59 40.0636 120.51 36.2166 123.502 32.9105C122.275 34.7438 121.198 36.6073 121.198 38.0499C121.198 38.2002 121.198 38.3805 121.228 38.5308C121.318 39.0718 121.707 39.4625 122.305 39.6428C123.413 40.0336 126.166 37.6592 128.38 34.9843C128.201 35.6154 128.051 36.3969 128.051 37.1182C128.051 37.3887 128.081 37.6592 128.111 37.9297C128.26 38.7712 128.649 39.162 129.308 39.5226C130.415 40.1237 132.45 38.5909 134.156 37.1182C134.126 37.3586 134.096 37.569 134.096 37.7794C134.096 39.1018 134.724 39.3723 135.143 39.5226L135.203 39.5527C136.64 40.0336 140.919 38.0199 142.565 32.9405C142.595 32.8203 142.565 32.7001 142.505 32.6099C142.565 32.5799 142.415 32.5198 142.296 32.5498ZM130.385 38.9215C130.176 38.9816 129.936 38.9516 129.846 38.8314C129.727 38.7111 129.757 38.5308 129.817 38.3805C130.445 36.6073 131.433 35.3149 132.48 33.9624L133.078 33.181C133.587 32.5799 134.545 31.4678 135.173 30.8667C135.502 30.5061 136.131 29.9951 136.61 29.7547C136.999 29.5142 137.388 29.5142 137.537 29.6044C137.567 29.6345 137.627 29.6946 137.627 29.8148C137.567 30.7164 136.939 32.5498 134.275 36.0362C133.108 37.4488 130.984 38.7412 130.385 38.9215ZM130.834 26.7492C131.732 25.3366 135.143 20.0168 135.143 20.0168C136.011 18.6042 138.046 15.2981 139.273 15.5987L139.303 15.6287C139.333 15.6588 139.333 15.749 139.333 15.8091C139.333 15.8992 139.303 16.0194 139.273 16.1397C137.807 19.7162 136.131 22.5414 132.211 25.6371C132.211 25.6371 131.462 26.2382 130.834 26.7492ZM110.245 38.8915C110.036 38.9516 109.796 38.9215 109.707 38.8013C109.587 38.6811 109.617 38.4707 109.677 38.3505C110.305 36.6373 111.263 35.375 112.28 34.0526L112.879 33.2711C113.358 32.67 114.465 31.4979 114.944 30.9869C115.273 30.5962 115.931 30.1153 116.35 29.905C116.739 29.6645 117.098 29.6645 117.248 29.7547C117.338 29.8148 117.368 29.8749 117.368 29.9951C117.218 31.9788 114.824 35.0745 114.046 36.0963C112.969 37.4488 110.844 38.7412 110.245 38.8915ZM95.1629 30.2356L95.2826 30.1153C95.911 29.5443 96.33 29.3339 96.4796 29.4842C96.5694 29.5142 96.5993 29.6044 96.5993 29.6946C96.5993 29.8148 96.5694 29.935 96.5095 30.0853C95.3724 33.6017 93.4571 34.6236 91.7215 35.4051C92.3499 34.2329 94.1753 31.0471 95.1629 30.2356ZM85.3174 31.0471C85.1977 31.4979 85.1379 31.7383 84.8087 32.4296C84.3299 33.3613 83.8211 34.1127 82.5942 35.6756C81.6366 36.8477 80.9483 37.569 80.2899 38.11C79.9907 38.4106 79.6016 38.621 79.1228 38.8614C78.7338 39.0417 78.1952 39.0718 78.0156 38.9816C77.7163 38.8314 77.836 38.1401 78.3149 37.1483C79.8411 33.9324 84.1204 29.0935 85.0481 29.5142C85.5269 29.8148 85.4371 30.6864 85.3174 31.0471ZM75.5019 44.602L76.0106 44.1211C76.9084 43.2194 77.9258 42.4079 78.644 41.897C78.1054 42.9489 76.8485 45.1129 74.8435 47.367C73.5268 48.8397 72.0904 49.8316 71.7013 49.531C71.6415 49.4709 71.6115 49.4108 71.6115 49.3206V49.2906C71.6115 48.3889 73.9457 46.1047 75.5019 44.602Z" fill="white"/>
<path d="M61.108 27.3203C61.9758 27.3504 62.8736 26.8695 63.1728 26.2383C63.3225 25.9378 63.2925 25.6372 63.1429 25.3968C62.9634 25.0962 62.5743 24.9159 62.0656 24.8859C61.1977 24.8558 60.3 25.3367 60.0007 25.9678C59.8511 26.2684 59.881 26.5689 60.0306 26.8094C60.2102 27.1099 60.5992 27.2903 61.108 27.3203Z" fill="white"/>
<path d="M153.787 18.1233V16.4702H154.505C154.655 16.4702 154.775 16.4702 154.834 16.5003C154.924 16.5303 154.984 16.5904 155.014 16.6505C155.074 16.7107 155.074 16.8008 155.074 16.891C155.074 17.0112 155.044 17.1014 154.954 17.1915C154.894 17.2817 154.775 17.3118 154.595 17.3418C154.655 17.3719 154.685 17.4019 154.715 17.432C154.775 17.4921 154.834 17.5522 154.894 17.6424L155.164 18.0932H154.894L154.685 17.7626C154.625 17.6724 154.565 17.5823 154.535 17.5221C154.505 17.462 154.445 17.432 154.416 17.4019C154.386 17.3719 154.356 17.3719 154.326 17.3719C154.296 17.3719 154.266 17.3719 154.206 17.3719H153.967V18.0932H153.787V18.1233ZM153.997 17.1915H154.475C154.565 17.1915 154.655 17.1915 154.715 17.1615C154.775 17.1314 154.805 17.1014 154.834 17.0713C154.864 17.0413 154.864 16.9812 154.864 16.921C154.864 16.8309 154.834 16.7708 154.775 16.7407C154.715 16.6806 154.625 16.6806 154.505 16.6806H153.997V17.1915Z" fill="white"/>
<path d="M154.445 18.6342C153.697 18.6342 153.069 18.0031 153.069 17.2517C153.069 16.5003 153.697 15.8691 154.445 15.8691C155.193 15.8691 155.822 16.5003 155.822 17.2517C155.822 18.0331 155.193 18.6342 154.445 18.6342ZM154.445 15.9593C153.727 15.9593 153.158 16.5304 153.158 17.2517C153.158 17.973 153.727 18.5441 154.445 18.5441C155.163 18.5441 155.732 17.973 155.732 17.2517C155.732 16.5604 155.163 15.9593 154.445 15.9593Z" fill="white"/>
</g>
<defs>
<clipPath id="clip0_463_3942">
<rect width="155.822" height="50.3425" fill="white"/>
</clipPath>
</defs>
</svg>
