<svg width="1440" height="800" viewBox="0 0 1440 800" fill="none" xmlns="http://www.w3.org/2000/svg">
<rect width="1440" height="800" fill="white"/>
<rect width="1440" height="800" fill="#CCCCCC" fill-opacity="0.5"/>
<g opacity="0.2" clip-path="url(#clip0_323_63429)">
<path d="M-327.51 472.385C-314.417 13.3718 207.135 20.8649 207.135 20.8649C1007.68 20.8649 1376.95 650.676 1439.39 769.407C1445.6 781.149 1459.03 814.212 1462.74 826.417L1508.73 940.205C1509.85 942.986 1504.25 944.453 1502.53 941.827" stroke="white" stroke-miterlimit="10"/>
<path d="M-327.51 472.385C-314.417 13.3718 207.135 20.8649 207.135 20.8649C1007.68 20.8649 1376.95 650.676 1439.39 769.407C1445.6 781.149 1459.03 814.212 1462.74 826.417L1508.73 940.205C1509.85 942.986 1504.25 944.453 1502.53 941.827" stroke="#CCCCCC" stroke-opacity="0.1" stroke-miterlimit="10"/>
<path d="M-292.539 503.903C-279.446 44.8893 242.106 52.3825 242.106 52.3825C1042.65 52.3825 1411.92 682.193 1474.36 800.925C1480.57 812.667 1494 845.729 1497.71 857.935L1543.7 971.722C1544.82 974.503 1539.22 975.971 1537.5 973.345" stroke="white" stroke-width="1.36" stroke-miterlimit="10"/>
<path d="M-292.539 503.903C-279.446 44.8893 242.106 52.3825 242.106 52.3825C1042.65 52.3825 1411.92 682.193 1474.36 800.925C1480.57 812.667 1494 845.729 1497.71 857.935L1543.7 971.722C1544.82 974.503 1539.22 975.971 1537.5 973.345" stroke="#CCCCCC" stroke-opacity="0.1" stroke-width="1.36" stroke-miterlimit="10"/>
<path d="M-257.567 535.42C-244.475 76.4069 276.991 83.9001 276.991 83.9001C1077.54 83.9001 1446.8 713.711 1509.25 832.442C1515.45 844.184 1528.89 877.247 1532.59 889.452L1578.59 1003.24C1579.71 1006.02 1574.11 1007.49 1572.39 1004.86" stroke="white" stroke-width="1.72" stroke-miterlimit="10"/>
<path d="M-257.567 535.42C-244.475 76.4069 276.991 83.9001 276.991 83.9001C1077.54 83.9001 1446.8 713.711 1509.25 832.442C1515.45 844.184 1528.89 877.247 1532.59 889.452L1578.59 1003.24C1579.71 1006.02 1574.11 1007.49 1572.39 1004.86" stroke="#CCCCCC" stroke-opacity="0.1" stroke-width="1.72" stroke-miterlimit="10"/>
<path d="M-222.683 566.938C-209.59 107.924 311.962 115.418 311.962 115.418C1112.51 115.418 1481.77 745.228 1544.22 863.96C1550.42 875.702 1563.86 908.764 1567.56 920.97L1613.56 1034.76C1614.68 1037.54 1609.08 1039.01 1607.36 1036.38" stroke="white" stroke-width="2.08" stroke-miterlimit="10"/>
<path d="M-222.683 566.938C-209.59 107.924 311.962 115.418 311.962 115.418C1112.51 115.418 1481.77 745.228 1544.22 863.96C1550.42 875.702 1563.86 908.764 1567.56 920.97L1613.56 1034.76C1614.68 1037.54 1609.08 1039.01 1607.36 1036.38" stroke="#CCCCCC" stroke-opacity="0.1" stroke-width="2.08" stroke-miterlimit="10"/>
<path d="M-187.711 598.378C-174.618 139.365 346.934 146.858 346.934 146.858C1147.48 146.858 1516.74 776.669 1579.19 895.401C1585.39 907.142 1598.83 940.205 1602.54 952.41L1648.53 1066.2C1649.65 1068.98 1644.05 1070.45 1642.33 1067.82" stroke="white" stroke-width="2.44" stroke-miterlimit="10"/>
<path d="M-187.711 598.378C-174.618 139.365 346.934 146.858 346.934 146.858C1147.48 146.858 1516.74 776.669 1579.19 895.401C1585.39 907.142 1598.83 940.205 1602.54 952.41L1648.53 1066.2C1649.65 1068.98 1644.05 1070.45 1642.33 1067.82" stroke="#CCCCCC" stroke-opacity="0.1" stroke-width="2.44" stroke-miterlimit="10"/>
<path d="M-152.74 629.896C-139.648 170.883 381.905 178.376 381.905 178.376C1182.45 178.376 1551.71 808.187 1614.16 926.918C1620.37 938.66 1633.8 971.723 1637.51 983.928L1683.5 1097.72C1684.62 1100.5 1679.02 1101.96 1677.3 1099.34" stroke="white" stroke-width="2.8" stroke-miterlimit="10"/>
<path d="M-152.74 629.896C-139.648 170.883 381.905 178.376 381.905 178.376C1182.45 178.376 1551.71 808.187 1614.16 926.918C1620.37 938.66 1633.8 971.723 1637.51 983.928L1683.5 1097.72C1684.62 1100.5 1679.02 1101.96 1677.3 1099.34" stroke="#CCCCCC" stroke-opacity="0.1" stroke-width="2.8" stroke-miterlimit="10"/>
<path d="M-117.77 661.413C-104.677 202.4 416.875 209.893 416.875 209.893C1217.42 209.893 1586.69 839.704 1649.13 958.436C1655.34 970.177 1668.77 1003.24 1672.48 1015.45L1718.47 1129.23C1719.59 1132.01 1713.99 1133.48 1712.27 1130.86" stroke="white" stroke-width="3.16" stroke-miterlimit="10"/>
<path d="M-117.77 661.413C-104.677 202.4 416.875 209.893 416.875 209.893C1217.42 209.893 1586.69 839.704 1649.13 958.436C1655.34 970.177 1668.77 1003.24 1672.48 1015.45L1718.47 1129.23C1719.59 1132.01 1713.99 1133.48 1712.27 1130.86" stroke="#CCCCCC" stroke-opacity="0.1" stroke-width="3.16" stroke-miterlimit="10"/>
<path d="M-82.7979 692.854C-69.7052 233.841 451.847 241.334 451.847 241.334C1252.39 241.334 1621.66 871.144 1684.11 989.876C1690.31 1001.62 1703.74 1034.68 1707.45 1046.89L1753.44 1160.67C1754.56 1163.45 1748.97 1164.92 1747.24 1162.3" stroke="white" stroke-width="3.52" stroke-miterlimit="10"/>
<path d="M-82.7979 692.854C-69.7052 233.841 451.847 241.334 451.847 241.334C1252.39 241.334 1621.66 871.144 1684.11 989.876C1690.31 1001.62 1703.74 1034.68 1707.45 1046.89L1753.44 1160.67C1754.56 1163.45 1748.97 1164.92 1747.24 1162.3" stroke="#CCCCCC" stroke-opacity="0.1" stroke-width="3.52" stroke-miterlimit="10"/>
<path d="M-47.8271 724.371C-34.7345 265.358 486.732 272.851 486.732 272.851C1287.28 272.851 1656.54 902.662 1718.99 1021.39C1725.19 1033.14 1738.63 1066.2 1742.33 1078.4L1788.33 1192.19C1789.45 1194.97 1783.85 1196.44 1782.13 1193.81" stroke="white" stroke-width="3.88" stroke-miterlimit="10"/>
<path d="M-47.8271 724.371C-34.7345 265.358 486.732 272.851 486.732 272.851C1287.28 272.851 1656.54 902.662 1718.99 1021.39C1725.19 1033.14 1738.63 1066.2 1742.33 1078.4L1788.33 1192.19C1789.45 1194.97 1783.85 1196.44 1782.13 1193.81" stroke="#CCCCCC" stroke-opacity="0.1" stroke-width="3.88" stroke-miterlimit="10"/>
<path d="M-12.9414 755.889C0.151235 296.876 521.704 304.369 521.704 304.369C1322.25 304.369 1691.51 934.18 1753.96 1052.91C1760.16 1064.65 1773.6 1097.72 1777.31 1109.92L1823.3 1223.71C1824.42 1226.49 1818.82 1227.96 1817.1 1225.33" stroke="white" stroke-width="4.24" stroke-miterlimit="10"/>
<path d="M-12.9414 755.889C0.151235 296.876 521.704 304.369 521.704 304.369C1322.25 304.369 1691.51 934.18 1753.96 1052.91C1760.16 1064.65 1773.6 1097.72 1777.31 1109.92L1823.3 1223.71C1824.42 1226.49 1818.82 1227.96 1817.1 1225.33" stroke="#CCCCCC" stroke-opacity="0.1" stroke-width="4.24" stroke-miterlimit="10"/>
<path d="M22.0293 787.329C35.1219 328.393 556.674 335.809 556.674 335.809C1357.22 335.809 1726.48 965.62 1788.93 1084.35C1795.13 1096.09 1808.57 1129.16 1812.28 1141.36L1858.27 1255.15C1859.39 1257.93 1853.79 1259.4 1852.07 1256.77" stroke="white" stroke-width="4.6" stroke-miterlimit="10"/>
<path d="M22.0293 787.329C35.1219 328.393 556.674 335.809 556.674 335.809C1357.22 335.809 1726.48 965.62 1788.93 1084.35C1795.13 1096.09 1808.57 1129.16 1812.28 1141.36L1858.27 1255.15C1859.39 1257.93 1853.79 1259.4 1852.07 1256.77" stroke="#CCCCCC" stroke-opacity="0.1" stroke-width="4.6" stroke-miterlimit="10"/>
<path d="M57 818.847C70.0926 359.834 591.645 367.327 591.645 367.327C1392.19 367.327 1761.45 997.138 1823.9 1115.87C1830.11 1127.61 1843.54 1160.67 1847.25 1172.88L1893.24 1286.67C1894.36 1289.45 1888.76 1290.92 1887.04 1288.29" stroke="white" stroke-width="4.96" stroke-miterlimit="10"/>
<path d="M57 818.847C70.0926 359.834 591.645 367.327 591.645 367.327C1392.19 367.327 1761.45 997.138 1823.9 1115.87C1830.11 1127.61 1843.54 1160.67 1847.25 1172.88L1893.24 1286.67C1894.36 1289.45 1888.76 1290.92 1887.04 1288.29" stroke="#CCCCCC" stroke-opacity="0.1" stroke-width="4.96" stroke-miterlimit="10"/>
<path d="M91.9717 850.365C105.064 391.351 626.617 398.844 626.617 398.844C1427.16 398.844 1796.43 1028.66 1858.88 1147.39C1865.08 1159.13 1878.51 1192.19 1882.22 1204.4L1928.21 1318.18C1929.33 1320.97 1923.74 1322.43 1922.01 1319.81" stroke="white" stroke-width="5.32" stroke-miterlimit="10"/>
<path d="M91.9717 850.365C105.064 391.351 626.617 398.844 626.617 398.844C1427.16 398.844 1796.43 1028.66 1858.88 1147.39C1865.08 1159.13 1878.51 1192.19 1882.22 1204.4L1928.21 1318.18C1929.33 1320.97 1923.74 1322.43 1922.01 1319.81" stroke="#CCCCCC" stroke-opacity="0.1" stroke-width="5.32" stroke-miterlimit="10"/>
<path d="M126.942 881.882C140.035 422.869 661.587 430.362 661.587 430.362C1462.13 430.362 1831.4 1060.17 1893.85 1178.9C1900.05 1190.65 1913.48 1223.71 1917.19 1235.91L1963.19 1349.7C1964.3 1352.48 1958.71 1353.95 1956.98 1351.32" stroke="white" stroke-width="5.68" stroke-miterlimit="10"/>
<path d="M126.942 881.882C140.035 422.869 661.587 430.362 661.587 430.362C1462.13 430.362 1831.4 1060.17 1893.85 1178.9C1900.05 1190.65 1913.48 1223.71 1917.19 1235.91L1963.19 1349.7C1964.3 1352.48 1958.71 1353.95 1956.98 1351.32" stroke="#CCCCCC" stroke-opacity="0.1" stroke-width="5.68" stroke-miterlimit="10"/>
<path d="M161.828 913.323C174.921 454.309 696.473 461.802 696.473 461.802C1497.02 461.802 1866.28 1091.61 1928.73 1210.34C1934.93 1222.09 1948.37 1255.15 1952.07 1267.35L1998.07 1381.14C1999.19 1383.92 1993.59 1385.39 1991.87 1382.76" stroke="white" stroke-width="6.04" stroke-miterlimit="10"/>
<path d="M161.828 913.323C174.921 454.309 696.473 461.802 696.473 461.802C1497.02 461.802 1866.28 1091.61 1928.73 1210.34C1934.93 1222.09 1948.37 1255.15 1952.07 1267.35L1998.07 1381.14C1999.19 1383.92 1993.59 1385.39 1991.87 1382.76" stroke="#CCCCCC" stroke-opacity="0.1" stroke-width="6.04" stroke-miterlimit="10"/>
<path d="M196.799 944.84C209.891 485.827 731.444 493.32 731.444 493.32C1531.99 493.32 1901.25 1123.13 1963.7 1241.86C1969.9 1253.6 1983.34 1286.67 1987.05 1298.87L2033.04 1412.66C2034.16 1415.44 2028.56 1416.91 2026.84 1414.28" stroke="white" stroke-width="6.4" stroke-miterlimit="10"/>
<path d="M196.799 944.84C209.891 485.827 731.444 493.32 731.444 493.32C1531.99 493.32 1901.25 1123.13 1963.7 1241.86C1969.9 1253.6 1983.34 1286.67 1987.05 1298.87L2033.04 1412.66C2034.16 1415.44 2028.56 1416.91 2026.84 1414.28" stroke="#CCCCCC" stroke-opacity="0.1" stroke-width="6.4" stroke-miterlimit="10"/>
<path d="M231.77 976.358C244.862 517.344 766.414 524.838 766.414 524.838C1566.96 524.838 1936.22 1154.65 1998.67 1273.38C2004.87 1285.12 2018.31 1318.18 2022.02 1330.39L2068.01 1444.18C2069.13 1446.96 2063.53 1448.43 2061.81 1445.8" stroke="white" stroke-width="6.76" stroke-miterlimit="10"/>
<path d="M231.77 976.358C244.862 517.344 766.414 524.838 766.414 524.838C1566.96 524.838 1936.22 1154.65 1998.67 1273.38C2004.87 1285.12 2018.31 1318.18 2022.02 1330.39L2068.01 1444.18C2069.13 1446.96 2063.53 1448.43 2061.81 1445.8" stroke="#CCCCCC" stroke-opacity="0.1" stroke-width="6.76" stroke-miterlimit="10"/>
<path d="M266.741 1007.8C279.834 548.784 801.386 556.277 801.386 556.277C1601.93 556.277 1971.2 1186.09 2033.64 1304.82C2039.85 1316.56 2053.28 1349.62 2056.99 1361.83L2102.98 1475.62C2104.1 1478.4 2098.51 1479.87 2096.78 1477.24" stroke="white" stroke-width="7.12" stroke-miterlimit="10"/>
<path d="M266.741 1007.8C279.834 548.784 801.386 556.277 801.386 556.277C1601.93 556.277 1971.2 1186.09 2033.64 1304.82C2039.85 1316.56 2053.28 1349.62 2056.99 1361.83L2102.98 1475.62C2104.1 1478.4 2098.51 1479.87 2096.78 1477.24" stroke="#CCCCCC" stroke-opacity="0.1" stroke-width="7.12" stroke-miterlimit="10"/>
<path d="M301.712 1039.31C314.805 580.301 836.357 587.795 836.357 587.795C1636.9 587.795 2006.17 1217.61 2068.62 1336.34C2074.82 1348.08 2088.25 1381.14 2091.96 1393.35L2137.95 1507.13C2139.07 1509.92 2133.48 1511.38 2131.75 1508.76" stroke="white" stroke-width="7.48" stroke-miterlimit="10"/>
<path d="M301.712 1039.31C314.805 580.301 836.357 587.795 836.357 587.795C1636.9 587.795 2006.17 1217.61 2068.62 1336.34C2074.82 1348.08 2088.25 1381.14 2091.96 1393.35L2137.95 1507.13C2139.07 1509.92 2133.48 1511.38 2131.75 1508.76" stroke="#CCCCCC" stroke-opacity="0.1" stroke-width="7.48" stroke-miterlimit="10"/>
<path d="M336.684 1070.83C349.776 611.819 871.329 619.312 871.329 619.312C1671.87 619.312 2041.14 1249.12 2103.59 1367.85C2109.79 1379.6 2123.23 1412.66 2126.93 1424.86L2172.93 1538.65C2174.05 1541.43 2168.45 1542.9 2166.72 1540.27" stroke="white" stroke-width="7.84" stroke-miterlimit="10"/>
<path d="M336.684 1070.83C349.776 611.819 871.329 619.312 871.329 619.312C1671.87 619.312 2041.14 1249.12 2103.59 1367.85C2109.79 1379.6 2123.23 1412.66 2126.93 1424.86L2172.93 1538.65C2174.05 1541.43 2168.45 1542.9 2166.72 1540.27" stroke="#CCCCCC" stroke-opacity="0.1" stroke-width="7.84" stroke-miterlimit="10"/>
<path d="M371.568 1102.35C384.661 643.337 906.213 650.83 906.213 650.83C1706.76 650.83 2076.02 1280.64 2138.47 1399.37C2144.67 1411.11 2158.11 1444.18 2161.81 1456.38L2207.9 1570.09C2209.02 1572.87 2203.42 1574.34 2201.7 1571.71" stroke="white" stroke-width="8.2" stroke-miterlimit="10"/>
<path d="M371.568 1102.35C384.661 643.337 906.213 650.83 906.213 650.83C1706.76 650.83 2076.02 1280.64 2138.47 1399.37C2144.67 1411.11 2158.11 1444.18 2161.81 1456.38L2207.9 1570.09C2209.02 1572.87 2203.42 1574.34 2201.7 1571.71" stroke="#CCCCCC" stroke-opacity="0.1" stroke-width="8.2" stroke-miterlimit="10"/>
<path d="M406.539 1133.79C419.632 674.777 941.184 682.27 941.184 682.27C1741.73 682.27 2110.99 1312.08 2173.44 1430.81C2179.64 1442.55 2193.08 1475.62 2196.79 1487.82L2242.78 1601.61C2243.9 1604.39 2238.3 1605.86 2236.58 1603.23" stroke="white" stroke-width="8.56" stroke-miterlimit="10"/>
<path d="M406.539 1133.79C419.632 674.777 941.184 682.27 941.184 682.27C1741.73 682.27 2110.99 1312.08 2173.44 1430.81C2179.64 1442.55 2193.08 1475.62 2196.79 1487.82L2242.78 1601.61C2243.9 1604.39 2238.3 1605.86 2236.58 1603.23" stroke="#CCCCCC" stroke-opacity="0.1" stroke-width="8.56" stroke-miterlimit="10"/>
<path d="M441.511 1165.31C454.603 706.295 976.156 713.788 976.156 713.788C1776.7 713.788 2145.97 1343.6 2208.41 1462.33C2214.62 1474.07 2228.05 1507.13 2231.76 1519.34L2277.75 1633.13C2278.87 1635.91 2273.27 1637.38 2271.55 1634.75" stroke="white" stroke-width="8.92" stroke-miterlimit="10"/>
<path d="M441.511 1165.31C454.603 706.295 976.156 713.788 976.156 713.788C1776.7 713.788 2145.97 1343.6 2208.41 1462.33C2214.62 1474.07 2228.05 1507.13 2231.76 1519.34L2277.75 1633.13C2278.87 1635.91 2273.27 1637.38 2271.55 1634.75" stroke="#CCCCCC" stroke-opacity="0.1" stroke-width="8.92" stroke-miterlimit="10"/>
<path d="M476.481 1196.83C489.574 737.812 1011.13 745.305 1011.13 745.305C1811.67 745.305 2180.94 1375.12 2243.38 1493.85C2249.59 1505.59 2263.02 1538.65 2266.73 1550.86L2312.72 1664.65C2313.84 1667.43 2308.25 1668.89 2306.52 1666.27" stroke="white" stroke-width="9.28" stroke-miterlimit="10"/>
<path d="M476.481 1196.83C489.574 737.812 1011.13 745.305 1011.13 745.305C1811.67 745.305 2180.94 1375.12 2243.38 1493.85C2249.59 1505.59 2263.02 1538.65 2266.73 1550.86L2312.72 1664.65C2313.84 1667.43 2308.25 1668.89 2306.52 1666.27" stroke="#CCCCCC" stroke-opacity="0.1" stroke-width="9.28" stroke-miterlimit="10"/>
<path d="M511.453 1228.27C524.546 769.253 1046.1 776.746 1046.1 776.746C1846.64 776.746 2215.91 1406.56 2278.36 1525.29C2284.56 1537.03 2298 1570.09 2301.7 1582.3L2347.7 1696.09C2348.82 1698.87 2343.22 1700.33 2341.49 1697.71" stroke="white" stroke-width="9.64" stroke-miterlimit="10"/>
<path d="M511.453 1228.27C524.546 769.253 1046.1 776.746 1046.1 776.746C1846.64 776.746 2215.91 1406.56 2278.36 1525.29C2284.56 1537.03 2298 1570.09 2301.7 1582.3L2347.7 1696.09C2348.82 1698.87 2343.22 1700.33 2341.49 1697.71" stroke="#CCCCCC" stroke-opacity="0.1" stroke-width="9.64" stroke-miterlimit="10"/>
</g>
<defs>
<clipPath id="clip0_323_63429">
<rect width="2715" height="1714" fill="white" transform="translate(-486)"/>
</clipPath>
</defs>
</svg>
