<svg width="170" height="171" viewBox="0 0 170 171" fill="none" xmlns="http://www.w3.org/2000/svg">
<path d="M71.36 75.0405V72.1205H53V75.3205H67.88C66.3867 76.8938 64.9867 78.6138 63.68 80.4805C62.4 82.3472 61.2667 84.3338 60.28 86.4405C59.2933 88.5205 58.48 90.7072 57.84 93.0005C57.2267 95.2672 56.84 97.6005 56.68 100H60.48C60.6133 97.7872 60.9867 95.5072 61.6 93.1605C62.2133 90.8138 63 88.5338 63.96 86.3205C64.9467 84.1072 66.0667 82.0272 67.32 80.0805C68.5733 78.1338 69.92 76.4538 71.36 75.0405ZM77.7066 86.0405C77.7066 85.3472 77.7066 84.5872 77.7066 83.7605C77.7332 82.9072 77.7999 82.0672 77.9066 81.2405C78.0399 80.3872 78.2132 79.5605 78.4266 78.7605C78.6666 77.9605 78.9999 77.2672 79.4266 76.6805C79.8799 76.0672 80.4399 75.5738 81.1066 75.2005C81.7732 74.8272 82.5866 74.6405 83.5466 74.6405C84.5066 74.6405 85.3199 74.8272 85.9866 75.2005C86.6532 75.5738 87.1999 76.0672 87.6266 76.6805C88.0799 77.2672 88.4132 77.9605 88.6266 78.7605C88.8666 79.5605 89.0399 80.3872 89.1466 81.2405C89.2799 82.0672 89.3466 82.9072 89.3466 83.7605C89.3732 84.5872 89.3866 85.3472 89.3866 86.0405C89.3866 87.1072 89.3466 88.3072 89.2666 89.6405C89.2132 90.9472 88.9999 92.1872 88.6266 93.3605C88.2799 94.5072 87.7066 95.4805 86.9066 96.2805C86.1066 97.0805 84.9866 97.4805 83.5466 97.4805C82.1066 97.4805 80.9866 97.0805 80.1866 96.2805C79.3866 95.4805 78.7999 94.5072 78.4266 93.3605C78.0799 92.1872 77.8666 90.9472 77.7866 89.6405C77.7332 88.3072 77.7066 87.1072 77.7066 86.0405ZM74.1066 86.0805C74.1066 87.1205 74.1332 88.2005 74.1866 89.3205C74.2399 90.4405 74.3732 91.5338 74.5866 92.6005C74.7999 93.6672 75.1066 94.6805 75.5066 95.6405C75.9066 96.5738 76.4532 97.4005 77.1466 98.1205C77.8399 98.8405 78.7066 99.4138 79.7466 99.8405C80.8132 100.24 82.0799 100.44 83.5466 100.44C85.0399 100.44 86.3066 100.24 87.3466 99.8405C88.3866 99.4138 89.2532 98.8405 89.9466 98.1205C90.6399 97.4005 91.1866 96.5738 91.5866 95.6405C91.9866 94.6805 92.2932 93.6672 92.5066 92.6005C92.7199 91.5338 92.8532 90.4405 92.9066 89.3205C92.9599 88.2005 92.9866 87.1205 92.9866 86.0805C92.9866 85.0405 92.9599 83.9605 92.9066 82.8405C92.8532 81.7205 92.7199 80.6272 92.5066 79.5605C92.2932 78.4938 91.9866 77.4805 91.5866 76.5205C91.1866 75.5605 90.6399 74.7205 89.9466 74.0005C89.2532 73.2805 88.3732 72.7072 87.3066 72.2805C86.2666 71.8538 85.0132 71.6405 83.5466 71.6405C82.0799 71.6405 80.8132 71.8538 79.7466 72.2805C78.7066 72.7072 77.8399 73.2805 77.1466 74.0005C76.4532 74.7205 75.9066 75.5605 75.5066 76.5205C75.1066 77.4805 74.7999 78.4938 74.5866 79.5605C74.3732 80.6272 74.2399 81.7205 74.1866 82.8405C74.1332 83.9605 74.1066 85.0405 74.1066 86.0805Z" fill="black"/>
<path d="M99.008 76.8085C99.008 76.4405 99.032 76.0565 99.08 75.6565C99.128 75.2405 99.224 74.8645 99.368 74.5285C99.528 74.1765 99.744 73.8885 100.016 73.6645C100.288 73.4245 100.648 73.3045 101.096 73.3045C101.56 73.3045 101.92 73.4245 102.176 73.6645C102.448 73.8885 102.656 74.1765 102.8 74.5285C102.944 74.8645 103.032 75.2405 103.064 75.6565C103.112 76.0565 103.136 76.4325 103.136 76.7845C103.136 77.1525 103.112 77.5445 103.064 77.9605C103.016 78.3765 102.912 78.7605 102.752 79.1125C102.608 79.4485 102.4 79.7285 102.128 79.9525C101.856 80.1765 101.488 80.2885 101.024 80.2885C100.576 80.2885 100.216 80.1765 99.944 79.9525C99.688 79.7125 99.488 79.4245 99.344 79.0885C99.2 78.7365 99.104 78.3605 99.056 77.9605C99.024 77.5445 99.008 77.1605 99.008 76.8085ZM97.208 76.8565C97.208 77.5125 97.272 78.1285 97.4 78.7045C97.544 79.2805 97.768 79.7845 98.072 80.2165C98.376 80.6485 98.776 80.9925 99.272 81.2485C99.768 81.4885 100.376 81.6085 101.096 81.6085C101.8 81.6085 102.392 81.4725 102.872 81.2005C103.352 80.9285 103.744 80.5765 104.048 80.1445C104.368 79.6965 104.592 79.1845 104.72 78.6085C104.864 78.0165 104.936 77.4085 104.936 76.7845C104.936 76.1285 104.872 75.5125 104.744 74.9365C104.632 74.3445 104.424 73.8325 104.12 73.4005C103.832 72.9685 103.44 72.6245 102.944 72.3685C102.464 72.1125 101.848 71.9845 101.096 71.9845C100.36 71.9845 99.744 72.1205 99.248 72.3925C98.752 72.6485 98.352 73.0005 98.048 73.4485C97.744 73.8965 97.528 74.4165 97.4 75.0085C97.272 75.5845 97.208 76.2005 97.208 76.8565ZM110.864 84.4885C110.864 84.1205 110.888 83.7365 110.936 83.3365C110.984 82.9205 111.08 82.5445 111.224 82.2085C111.384 81.8565 111.6 81.5685 111.872 81.3445C112.144 81.1045 112.504 80.9845 112.952 80.9845C113.416 80.9845 113.776 81.1045 114.032 81.3445C114.304 81.5685 114.512 81.8565 114.656 82.2085C114.8 82.5445 114.888 82.9205 114.92 83.3365C114.968 83.7365 114.992 84.1125 114.992 84.4645C114.992 84.8325 114.968 85.2245 114.92 85.6405C114.872 86.0565 114.768 86.4405 114.608 86.7925C114.464 87.1285 114.256 87.4085 113.984 87.6325C113.712 87.8565 113.344 87.9685 112.88 87.9685C112.432 87.9685 112.072 87.8565 111.8 87.6325C111.544 87.3925 111.344 87.1045 111.2 86.7685C111.056 86.4165 110.96 86.0405 110.912 85.6405C110.88 85.2245 110.864 84.8405 110.864 84.4885ZM109.064 84.5365C109.064 85.1925 109.128 85.8085 109.256 86.3845C109.4 86.9605 109.624 87.4645 109.928 87.8965C110.232 88.3125 110.632 88.6485 111.128 88.9045C111.624 89.1445 112.232 89.2645 112.952 89.2645C113.656 89.2645 114.248 89.1365 114.728 88.8805C115.208 88.6085 115.6 88.2565 115.904 87.8245C116.224 87.3765 116.448 86.8645 116.576 86.2885C116.72 85.6965 116.792 85.0885 116.792 84.4645C116.792 83.8085 116.728 83.1925 116.6 82.6165C116.488 82.0245 116.28 81.5125 115.976 81.0805C115.688 80.6485 115.296 80.3045 114.8 80.0485C114.32 79.7925 113.704 79.6645 112.952 79.6645C112.216 79.6645 111.6 79.8005 111.104 80.0725C110.608 80.3285 110.208 80.6805 109.904 81.1285C109.6 81.5765 109.384 82.0965 109.256 82.6885C109.128 83.2645 109.064 83.8805 109.064 84.5365ZM112.424 71.6725L99.512 89.5045H101.576L114.464 71.6725H112.424Z" fill="black"/>
<path d="M84.3285 0.501465C66.4628 0.642604 49.0958 6.40967 34.6945 16.9835C20.2931 27.5573 9.58976 42.4001 4.10476 59.4036C-1.38023 76.4071 -1.36794 94.7066 4.13989 111.703C9.64772 128.699 20.371 143.527 34.7865 154.082C49.2021 164.636 66.5768 170.38 84.4427 170.497C102.309 170.614 119.757 165.099 134.31 154.734C148.863 144.37 159.779 129.683 165.51 112.761C171.24 95.8383 171.492 77.5405 166.23 60.4666L151.644 65.0879C155.932 79.0861 155.702 94.0789 150.989 107.939C146.275 121.8 137.317 133.824 125.385 142.307C113.453 150.789 99.1525 155.299 84.5128 155.197C69.8731 155.095 55.6374 150.385 43.825 141.737C32.0126 133.088 23.2233 120.94 18.704 107.015C14.1848 93.0897 14.1649 78.0952 18.6474 64.1582C23.1298 50.2213 31.8869 38.0497 43.6764 29.3699C55.4659 20.6902 69.6892 15.9431 84.3285 15.802V0.501465Z" fill="#004B8D"/>
<path d="M165.825 59.1863C160.307 42.2347 149.598 27.4473 135.214 16.9159C120.83 6.38455 103.499 0.642296 85.6719 0.501465V15.802C100.248 15.9425 114.414 20.6495 126.175 29.2609C137.937 37.8722 146.703 49.9545 151.239 63.8077L165.825 59.1863Z" fill="#E5E5E5"/>
<circle opacity="0.5" cx="85.4788" cy="85.493" r="46.7513" stroke="#737373" stroke-width="0.5"/>
</svg>
