<svg width="139" height="57" viewBox="0 0 139 57" fill="none" xmlns="http://www.w3.org/2000/svg">
<g opacity="0.5">
<path d="M0 0.751465H19.9596V3.06386C19.1077 3.51011 18.1543 3.89551 17.0996 4.22006C16.0854 4.50404 15.0914 4.70688 14.1178 4.82859V39.3928H25.8623L29.9394 28.5002H32.4344C32.5967 29.4333 32.7387 30.5286 32.8604 31.7863C33.0226 33.0439 33.1443 34.3623 33.2255 35.7417C33.3066 37.121 33.3675 38.48 33.408 39.8188C33.4486 41.1575 33.4486 42.334 33.408 43.3482H0V41.0358C0.933072 40.549 1.80529 40.1636 2.61666 39.8796C3.46859 39.5957 4.25968 39.3928 4.98991 39.2711V4.82859C3.00206 4.50404 1.33876 3.9158 0 3.06386V0.751465Z" fill="#CCCCCC"/>
<path d="M36.1469 28.1351C36.1469 25.6604 36.512 23.4495 37.2422 21.5022C38.013 19.5143 39.0881 17.8307 40.4674 16.4514C41.8873 15.0721 43.5912 14.0173 45.579 13.2871C47.5669 12.5569 49.8184 12.1917 52.3336 12.1917C55.1734 12.1917 57.6075 12.5974 59.6359 13.4088C61.7049 14.1796 63.3885 15.2749 64.6867 16.6948C66.0255 18.0742 66.9991 19.7577 67.6076 21.7456C68.2162 23.6929 68.5204 25.8227 68.5204 28.1351C68.5204 30.6098 68.1553 32.841 67.4251 34.8289C66.6948 36.7762 65.6198 38.4395 64.1999 39.8188C62.8206 41.1981 61.1167 42.2529 59.0883 42.9831C57.1004 43.7134 54.8489 44.0785 52.3336 44.0785C49.575 44.0785 47.1815 43.6931 45.153 42.9223C43.1246 42.1109 41.441 41.0156 40.1023 39.6362C38.7635 38.2163 37.7696 36.5327 37.1205 34.5855C36.4714 32.5976 36.1469 30.4475 36.1469 28.1351ZM45.579 28.1351C45.579 29.9607 45.6804 31.6443 45.8833 33.1859C46.1267 34.6869 46.5324 35.9648 47.1003 37.0196C47.6683 38.0743 48.4391 38.906 49.4127 39.5145C50.3864 40.0825 51.644 40.3665 53.1856 40.3665C54.0781 40.3665 54.8895 40.1636 55.6197 39.7579C56.3499 39.3117 56.9787 38.622 57.5061 37.6889C58.0335 36.7153 58.4189 35.4577 58.6623 33.9161C58.9463 32.3339 59.0883 30.4069 59.0883 28.1351C59.0883 26.269 58.9666 24.5854 58.7232 23.0843C58.5203 21.5833 58.1349 20.3054 57.567 19.2506C57.0396 18.1959 56.3093 17.3845 55.3763 16.8165C54.4432 16.208 53.2667 15.9037 51.8468 15.9037C50.792 15.9037 49.8793 16.1269 49.1085 16.5731C48.3377 16.9788 47.6886 17.6685 47.1612 18.6421C46.6338 19.5752 46.2281 20.8328 45.9441 22.415C45.7007 23.9566 45.579 25.8633 45.579 28.1351Z" fill="#CCCCCC"/>
<path d="M86.4567 12.1917C89.0936 12.1917 91.2843 12.4757 93.0288 13.0437C94.7732 13.5711 96.0917 14.2404 96.9842 15.0518C98.8909 12.9828 101.082 11.5426 103.556 10.7313C103.84 10.9341 104.124 11.2384 104.408 11.6441C104.692 12.0092 104.936 12.4149 105.138 12.8611C105.341 13.3074 105.504 13.7536 105.625 14.1999C105.747 14.6461 105.808 15.0112 105.808 15.2952L105.017 16.7557H98.6272C99.0735 17.3236 99.4791 18.0742 99.8443 19.0072C100.25 19.8997 100.453 20.9748 100.453 22.2324C100.453 23.5712 100.169 24.8288 99.6008 26.0053C99.0329 27.1817 98.1607 28.2365 96.9842 29.1696C95.8483 30.0621 94.3878 30.772 92.6028 31.2994C90.8584 31.8268 88.8097 32.0905 86.4567 32.0905C85.767 32.0905 85.1382 32.0905 84.5703 32.0905C84.0429 32.0499 83.5763 31.9891 83.1707 31.908C83.0084 32.1514 82.8258 32.4556 82.623 32.8207C82.4607 33.1453 82.3796 33.4698 82.3796 33.7944C82.3796 34.4841 82.8664 35.0317 83.84 35.4374C84.8137 35.8431 86.051 36.2082 87.552 36.5328C89.0531 36.8573 90.6555 37.2224 92.3594 37.6281C94.1038 38.0338 95.7266 38.5815 97.2276 39.2711C98.7286 39.9202 99.9862 40.7924 101 41.8878C102.015 42.9426 102.542 44.3219 102.583 46.0257C102.623 47.6485 102.217 49.0886 101.366 50.3463C100.514 51.6039 99.3372 52.6587 97.8361 53.5106C96.3757 54.4031 94.6312 55.0725 92.6028 55.5187C90.615 56.0056 88.4851 56.249 86.2133 56.249C83.5358 56.249 81.2437 56.0258 79.337 55.5796C77.4708 55.1739 75.9495 54.6059 74.773 53.8757C73.5965 53.1455 72.7243 52.3138 72.1564 51.3808C71.629 50.4477 71.3653 49.4741 71.3653 48.4598C71.3653 47.3239 71.5884 46.3503 72.0346 45.5389C72.4809 44.7276 73.1097 44.0176 73.9211 43.4091C74.7324 42.8006 75.6655 42.2935 76.7203 41.8878C77.8156 41.4821 79.0124 41.117 80.3106 40.7924C79.7021 40.6302 79.1138 40.4273 78.5459 40.1839C77.9779 39.9405 77.4708 39.6565 77.0246 39.332C76.5783 38.9669 76.2132 38.5612 75.9292 38.1149C75.6452 37.6281 75.5032 37.0804 75.5032 36.4719C75.5032 35.9445 75.6655 35.4374 75.9901 34.9506C76.3146 34.4232 76.7406 33.9567 77.268 33.551C77.7954 33.1047 78.3633 32.7193 78.9718 32.3948C79.5804 32.0297 80.1889 31.7254 80.7974 31.482C78.2416 30.914 76.2132 29.8187 74.7122 28.196C73.2111 26.5326 72.4606 24.4231 72.4606 21.8673C72.4606 18.8247 73.7182 16.4514 76.2335 14.7475C78.7487 13.0437 82.1564 12.1917 86.4567 12.1917ZM94.1241 47.973C94.1241 46.8777 93.7793 45.9852 93.0896 45.2955C92.4405 44.6464 91.5886 44.0987 90.5338 43.6525C89.479 43.2468 88.2823 42.902 86.9435 42.618C85.6453 42.2935 84.3471 41.9283 83.049 41.5227C81.9942 42.334 81.2437 43.1454 80.7974 43.9568C80.3512 44.7681 80.128 45.7418 80.128 46.8777C80.128 48.7438 80.7568 50.184 82.0145 51.1982C83.3127 52.253 85.1179 52.7804 87.4303 52.7804C89.7022 52.7804 91.3857 52.2936 92.4811 51.3199C93.5764 50.3868 94.1241 49.2712 94.1241 47.973ZM81.2234 22.1716C81.2234 24.2811 81.5682 25.8836 82.2579 26.9789C82.9881 28.0742 84.3877 28.6219 86.4567 28.6219C88.4445 28.6219 89.8036 28.0742 90.5338 26.9789C91.3046 25.843 91.69 24.2405 91.69 22.1716C91.69 19.9809 91.3046 18.3581 90.5338 17.3034C89.763 16.208 88.404 15.6603 86.4567 15.6603C84.4283 15.6603 83.049 16.1877 82.3187 17.2425C81.5885 18.2973 81.2234 19.9403 81.2234 22.1716Z" fill="#CCCCCC"/>
<path d="M106.626 28.1351C106.626 25.6604 106.992 23.4495 107.722 21.5022C108.493 19.5143 109.568 17.8307 110.947 16.4514C112.367 15.0721 114.071 14.0173 116.059 13.2871C118.046 12.5569 120.298 12.1917 122.813 12.1917C125.653 12.1917 128.087 12.5974 130.116 13.4088C132.185 14.1796 133.868 15.2749 135.166 16.6948C136.505 18.0742 137.479 19.7577 138.087 21.7456C138.696 23.6929 139 25.8227 139 28.1351C139 30.6098 138.635 32.841 137.905 34.8289C137.174 36.7762 136.099 38.4395 134.679 39.8188C133.3 41.1981 131.596 42.2529 129.568 42.9831C127.58 43.7134 125.328 44.0785 122.813 44.0785C120.055 44.0785 117.661 43.6931 115.633 42.9223C113.604 42.1109 111.921 41.0156 110.582 39.6362C109.243 38.2163 108.249 36.5327 107.6 34.5855C106.951 32.5976 106.626 30.4475 106.626 28.1351ZM116.059 28.1351C116.059 29.9607 116.16 31.6443 116.363 33.1859C116.606 34.6869 117.012 35.9648 117.58 37.0196C118.148 38.0743 118.919 38.906 119.892 39.5145C120.866 40.0825 122.124 40.3665 123.665 40.3665C124.558 40.3665 125.369 40.1636 126.099 39.7579C126.829 39.3117 127.458 38.622 127.986 37.6889C128.513 36.7153 128.898 35.4577 129.142 33.9161C129.426 32.3339 129.568 30.4069 129.568 28.1351C129.568 26.269 129.446 24.5854 129.203 23.0843C129 21.5833 128.615 20.3054 128.047 19.2506C127.519 18.1959 126.789 17.3845 125.856 16.8165C124.923 16.208 123.746 15.9037 122.326 15.9037C121.272 15.9037 120.359 16.1269 119.588 16.5731C118.817 16.9788 118.168 17.6685 117.641 18.6421C117.113 19.5752 116.708 20.8328 116.424 22.415C116.18 23.9566 116.059 25.8633 116.059 28.1351Z" fill="#CCCCCC"/>
</g>
</svg>
