<svg width="257" height="334" viewBox="0 0 257 334" fill="none" xmlns="http://www.w3.org/2000/svg">
<rect width="257" height="333.405" fill="#003366"/>
<path d="M52.0947 105.928L102.453 55.5703H201.433V276.104H52.0947V105.928Z" fill="#004B8D" stroke="#003366" stroke-width="6.94594"/>
<path d="M52.0947 105.928H102.453V55.5703" stroke="#003366" stroke-width="6.94594"/>
<path d="M88.9426 178.549V167.722H95.1153C96.026 167.722 96.903 167.789 97.7462 167.924C98.5895 168.059 99.3316 168.329 99.9725 168.733C100.613 169.104 101.119 169.644 101.49 170.353C101.895 171.061 102.097 171.988 102.097 173.135C102.097 174.282 101.895 175.21 101.49 175.918C101.119 176.626 100.613 177.183 99.9725 177.588C99.3316 177.959 98.5895 178.212 97.7462 178.347C96.903 178.482 96.026 178.549 95.1153 178.549H88.9426ZM80.999 161.549V197.674H88.9426V184.722H97.2909C99.5508 184.722 101.473 184.401 103.059 183.76C104.644 183.086 105.926 182.209 106.904 181.129C107.916 180.05 108.641 178.819 109.08 177.436C109.552 176.019 109.788 174.586 109.788 173.135C109.788 171.651 109.552 170.218 109.08 168.835C108.641 167.452 107.916 166.221 106.904 165.141C105.926 164.062 104.644 163.202 103.059 162.561C101.473 161.886 99.5508 161.549 97.2909 161.549H80.999Z" fill="#FAFAFA"/>
<path d="M122.69 190.996V168.227H128.356C130.313 168.227 131.949 168.514 133.264 169.088C134.613 169.627 135.693 170.42 136.502 171.466C137.312 172.511 137.885 173.776 138.222 175.26C138.594 176.711 138.779 178.347 138.779 180.168C138.779 182.158 138.526 183.845 138.02 185.228C137.514 186.611 136.84 187.741 135.996 188.618C135.153 189.461 134.192 190.068 133.112 190.439C132.033 190.81 130.92 190.996 129.773 190.996H122.69ZM114.746 161.549V197.674H130.33C133.095 197.674 135.49 197.219 137.514 196.308C139.572 195.364 141.275 194.082 142.624 192.463C144.007 190.844 145.036 188.921 145.711 186.695C146.385 184.469 146.723 182.04 146.723 179.409C146.723 176.407 146.301 173.793 145.458 171.567C144.648 169.341 143.501 167.485 142.017 166.001C140.567 164.517 138.83 163.404 136.806 162.662C134.816 161.92 132.657 161.549 130.33 161.549H114.746Z" fill="#FAFAFA"/>
<path d="M152.248 161.549V197.674H160.192V182.748H175.32V176.576H160.192V168.227H177.647V161.549H152.248Z" fill="#FAFAFA"/>
</svg>
