<svg id="CAVENTOR_LOGO_MainNav" data-name="CAVENTOR LOGO MainNav" xmlns="http://www.w3.org/2000/svg" xmlns:xlink="http://www.w3.org/1999/xlink" viewBox="0 0 271.98 86.93"><defs><style>.cls-1{fill:none;}.cls-2{fill:#fff;}.cls-3{clip-path:url(#clip-path);}</style><clipPath id="clip-path" transform="translate(-0.31 0)"><rect class="cls-1" width="273.3" height="86.93"/></clipPath></defs><path id="Path_210" data-name="Path 210" class="cls-2" d="M114.34,52.41H100.52l-2,4.51h-7L104.2,29.54h6.68l12.65,27.38h-7.24Zm-2-4.52-4.9-11.31-4.94,11.31Z" transform="translate(-0.31 0)"/><path id="Path_211" data-name="Path 211" class="cls-2" d="M133.41,56.92h-7.24L114,29.53h7.25L130,49.94l8.76-20.41h6.93Z" transform="translate(-0.31 0)"/><path id="Path_212" data-name="Path 212" class="cls-2" d="M143.45,29.53h18.08v5H150.21v5.95h10.23v4.62H150.21v6.76h11.66v5H143.45Z" transform="translate(-0.31 0)"/><path id="Path_213" data-name="Path 213" class="cls-2" d="M170.31,39.51V56.92h-6.76V29.53h6.59L183.2,46.87V29.53h6.71V56.92h-6.45Z" transform="translate(-0.31 0)"/><path id="Path_214" data-name="Path 214" class="cls-2" d="M197.53,34.64h-5.59v-5.1h17.94v5.1h-5.59V56.92h-6.76Z" transform="translate(-0.31 0)"/><g id="Group_21" data-name="Group 21"><g class="cls-3"><g id="Group_20" data-name="Group 20"><path id="Path_215" data-name="Path 215" class="cls-2" d="M246.28,43.19c0,8.08-7.89,14.61-17.81,14.61s-17.9-6.53-17.9-14.61,7.84-14.54,17.9-14.54,17.81,6.5,17.81,14.54m-28.95,0c0,5.14,4.85,9.4,11.14,9.4s11.05-4.26,11.05-9.4-4.9-9.33-11.05-9.33-11.14,4.23-11.14,9.33" transform="translate(-0.31 0)"/><path id="Path_216" data-name="Path 216" class="cls-2" d="M255.39,47.19H255v9.73h-6.77V29.53h8.72c6.54,0,12.22,2.31,12.22,8.92,0,3.86-2.86,6.43-6.55,7.75l9.71,10.72h-8.1ZM255,34.64v8h2.12c3.3,0,5.38-1.55,5.38-4.12,0-2.38-2-3.89-5.38-3.89Z" transform="translate(-0.31 0)"/><path id="Path_217" data-name="Path 217" class="cls-2" d="M52.89,46.77a16.68,16.68,0,0,0-3-.55c.38.55,2.86,2.08,7.6,4.75l-.25-.33c-2.48-1.61-3.94-2.88-4.3-3.87" transform="translate(-0.31 0)"/><path id="Path_218" data-name="Path 218" class="cls-2" d="M36.6,30l-.33-.24c2.79,4.95,4.35,7.43,4.87,7.68a17.07,17.07,0,0,0-.53-3.09c-1-.27-2.32-1.74-4-4.35" transform="translate(-0.31 0)"/><path id="Path_219" data-name="Path 219" class="cls-2" d="M62.17,56.9c.19-.27.38-.53.56-.8-10.27-6.77-10.76-6.79-.56.8" transform="translate(-0.31 0)"/><path id="Path_220" data-name="Path 220" class="cls-2" d="M52.86,46.66c-.6-2.07,3.77-2.9,13.76-3.13v-.14c-9.85-.23-14.24-1-13.78-3-2.22.66-3.25.83-3,.42-2.54.14-3.59-.9-3.5-3.46-.37.14-.23-.87.33-3-1.84.27-2.59-4.14-2.8-13.77H43.7c-.22,9.82-1,14.24-3,13.84.65,2.2.83,3.25.44,3.06.13,2.54-.9,3.6-3.48,3.53.09.35-.94.21-3-.32.13,1.76-4.23,2.49-13.6,2.7v.15c9.52.22,13.88,1,13.61,2.8,2.12-.57,3.13-.7,3-.34,2.56-.09,3.6,1,3.46,3.51.41-.23.24.8-.42,3,2-.46,2.78,3.88,3,13.62h.16c.21-9.55,1-13.89,2.82-13.55-.58-2.13-.71-3.14-.33-3-.09-2.56,1-3.6,3.5-3.44-.3-.44.73-.26,3,.45m-9,9.06c0-10.18-2.08-12.26-12.26-12.26,10.18,0,12.26-2.08,12.26-12.26,0,10.18,2.08,12.26,12.26,12.26-10.18,0-12.26,2.08-12.26,12.26" transform="translate(-0.31 0)"/><path id="Path_221" data-name="Path 221" class="cls-2" d="M57.06,24.81c-.28-.2-.57-.4-.86-.58-6.7,10.51-6.71,11,.86.58" transform="translate(-0.31 0)"/><path id="Path_222" data-name="Path 222" class="cls-2" d="M57.43,36c1.68-.94,3.62-2,5.87-3.24-2.46,1.35-4.5,2.53-6.11,3.57a3.44,3.44,0,0,0-.87,2.92l.73-.24-.73.24c.56,1.85,3.9,3,10.29,3.55A22.69,22.69,0,0,0,63,31a31.78,31.78,0,0,0-5.54,5" transform="translate(-0.31 0)"/><path id="Path_223" data-name="Path 223" class="cls-2" d="M62,29.65a23,23,0,0,0-4.6-4.58C52,33.89,53.27,35.17,62,29.65" transform="translate(-0.31 0)"/><path id="Path_224" data-name="Path 224" class="cls-2" d="M62.85,30.81,62.29,30c-10.37,7.68-9.88,7.65.56.81" transform="translate(-0.31 0)"/><path id="Path_225" data-name="Path 225" class="cls-2" d="M56.28,47.79l.85.29-.85-.29a3.58,3.58,0,0,0,.91,2.85c1.6,1,3.63,2.23,6.07,3.57C61,53,59.1,51.91,57.44,51a31.29,31.29,0,0,0,5.42,4.93A22.64,22.64,0,0,0,66.6,44.12c-6.5.62-9.85,1.75-10.32,3.67" transform="translate(-0.31 0)"/><path id="Path_226" data-name="Path 226" class="cls-2" d="M56.28,47.79h0c-1.35-.46-2.49-.84-3.42-1.13l0,.11c1,.26,2.12.6,3.39,1" transform="translate(-0.31 0)"/><path id="Path_227" data-name="Path 227" class="cls-2" d="M40.58,52.56a16.63,16.63,0,0,0,.52-3.05c-.53.3-2.06,2.77-4.78,7.61l.33-.24c1.65-2.55,2.93-4,3.93-4.32" transform="translate(-0.31 0)"/><path id="Path_228" data-name="Path 228" class="cls-2" d="M34.64,40.6a18.24,18.24,0,0,0,3,.41c-.12-.49-2.55-2-7.5-4.63.08.12.17.22.24.33,2.65,1.65,4.09,2.92,4.24,3.89" transform="translate(-0.31 0)"/><path id="Path_229" data-name="Path 229" class="cls-2" d="M50.53,56.83l.32.25c-2.55-4.76-4-7.17-4.5-7.43a15.86,15.86,0,0,0,.43,3c.94.25,2.17,1.68,3.74,4.2" transform="translate(-0.31 0)"/><path id="Path_230" data-name="Path 230" class="cls-2" d="M30.4,50.27l-.24.32C35,48,37.44,46.5,37.64,46a17.94,17.94,0,0,0-3,.44c-.22,1-1.66,2.21-4.24,3.83" transform="translate(-0.31 0)"/><path id="Path_231" data-name="Path 231" class="cls-2" d="M46.74,34.33a17,17,0,0,0-.43,3c.5-.2,2-2.63,4.59-7.48l-.32.24c-1.62,2.59-2.87,4-3.84,4.24" transform="translate(-0.31 0)"/><path id="Path_232" data-name="Path 232" class="cls-2" d="M40.7,34.42c-.28-1-.66-2.13-1.11-3.5h0c.42,1.29.77,2.45,1,3.47l.1,0" transform="translate(-0.31 0)"/><path id="Path_233" data-name="Path 233" class="cls-2" d="M47.69,30.78h0c-.43,1.41-.78,2.6-1,3.57h.1c.23-1.05.55-2.23,1-3.56" transform="translate(-0.31 0)"/><path id="Path_234" data-name="Path 234" class="cls-2" d="M46.67,52.6c.26,1,.6,2.14,1,3.55h0c-.4-1.31-.71-2.49-.94-3.52l-.1,0" transform="translate(-0.31 0)"/><path id="Path_235" data-name="Path 235" class="cls-2" d="M52.84,40.37q1.42-.42,3.48-1.11h0c-1.28.42-2.43.76-3.44,1l0,.1" transform="translate(-0.31 0)"/><path id="Path_236" data-name="Path 236" class="cls-2" d="M57.19,36.34c.07-.11.16-.22.24-.33-4.84,2.72-7.32,4.25-7.61,4.78a16.88,16.88,0,0,0,3.06-.52c.3-1,1.76-2.28,4.31-3.93" transform="translate(-0.31 0)"/><path id="Path_237" data-name="Path 237" class="cls-2" d="M39.57,56h0q.68-2.05,1.11-3.48l-.1,0c-.26,1-.6,2.17-1,3.45" transform="translate(-0.31 0)"/><path id="Path_238" data-name="Path 238" class="cls-2" d="M31,39.67h0c1.43.42,2.65.76,3.63,1V40.6q-1.59-.35-3.63-.93" transform="translate(-0.31 0)"/><path id="Path_239" data-name="Path 239" class="cls-2" d="M34.65,46.34c-1,.26-2.16.6-3.57,1h0c1.33-.4,2.51-.72,3.56-1a.31.31,0,0,0,0-.1" transform="translate(-0.31 0)"/><path id="Path_240" data-name="Path 240" class="cls-2" d="M39.57,56l-.24.73.24-.73a3.43,3.43,0,0,0-2.92.87Q35.09,59.3,33.07,63c1.24-2.25,2.31-4.2,3.25-5.88a30.29,30.29,0,0,0-4.87,5.37,22.6,22.6,0,0,0,11.66,3.64C42.5,59.86,41.4,56.57,39.57,56" transform="translate(-0.31 0)"/><path id="Path_241" data-name="Path 241" class="cls-2" d="M31,39.67l-.72-.21.72.21c.41-.82.2-1.79-.61-3-1.69-1.05-3.85-2.25-6.49-3.63l6.24,3.3a29.66,29.66,0,0,0-5.68-5.05,22.68,22.68,0,0,0-3.43,11.48c5.9-.56,9.15-1.54,10-3.14" transform="translate(-0.31 0)"/><path id="Path_242" data-name="Path 242" class="cls-2" d="M25.18,30.28c-.2.28-.39.56-.58.85,10.43,6.62,10.91,6.63.58-.85" transform="translate(-0.31 0)"/><path id="Path_243" data-name="Path 243" class="cls-2" d="M30,25.27a23,23,0,0,0-4.55,4.64c8.8,5.4,10.07,4.1,4.55-4.64" transform="translate(-0.31 0)"/><path id="Path_244" data-name="Path 244" class="cls-2" d="M30.16,50.6,24,53.9c2.61-1.38,4.76-2.58,6.43-3.63.8-1.13,1-2.08.68-2.89l-.86.26.86-.26c-.73-1.67-4-2.68-10-3.26a22.69,22.69,0,0,0,3.53,11.45,29.24,29.24,0,0,0,5.57-5" transform="translate(-0.31 0)"/><path id="Path_245" data-name="Path 245" class="cls-2" d="M25.57,57a23,23,0,0,0,4.5,4.53c5.34-8.52,4.07-9.79-4.5-4.53" transform="translate(-0.31 0)"/><path id="Path_246" data-name="Path 246" class="cls-2" d="M24.72,55.78c.19.28.38.57.58.84,10.16-7.39,9.68-7.38-.58-.84" transform="translate(-0.31 0)"/><path id="Path_247" data-name="Path 247" class="cls-2" d="M31.11,24.45c-.27.18-.53.37-.78.56,7.67,10.33,7.63,9.86.78-.56" transform="translate(-0.31 0)"/><path id="Path_248" data-name="Path 248" class="cls-2" d="M50.85,57.07c.95,1.76,2,3.83,3.3,6.24-1.37-2.63-2.57-4.8-3.62-6.48a3,3,0,0,0-2.82-.68c.1.34.2.68.31,1-.11-.35-.21-.7-.31-1-1.68.7-2.7,4-3.28,10a22.73,22.73,0,0,0,11.44-3.43,29.2,29.2,0,0,0-5-5.63" transform="translate(-0.31 0)"/><path id="Path_249" data-name="Path 249" class="cls-2" d="M30.44,61.8l.8.56c6.68-10.2,6.7-10.67-.8-.56" transform="translate(-0.31 0)"/><path id="Path_250" data-name="Path 250" class="cls-2" d="M36.27,29.8c-.94-1.67-2-3.6-3.24-5.82,1.35,2.44,2.53,4.46,3.57,6.06a3.43,3.43,0,0,0,3,.88l-.19-.57.19.57c1.84-.6,2.93-4,3.54-10.33A22.66,22.66,0,0,0,31.3,24.33a31.47,31.47,0,0,0,5,5.47" transform="translate(-0.31 0)"/><path id="Path_251" data-name="Path 251" class="cls-2" d="M56.07,62.58c.3-.19.59-.38.88-.59-7.4-10.19-7.4-9.7-.88.59" transform="translate(-0.31 0)"/><path id="Path_252" data-name="Path 252" class="cls-2" d="M47.69,30.77c.08-.28.17-.56.26-.86-.09.3-.18.58-.26.86.8.35,1.76.12,2.89-.68,1.05-1.67,2.24-3.82,3.62-6.43-1.26,2.39-2.35,4.44-3.3,6.19A29.74,29.74,0,0,0,56,24.1a22.59,22.59,0,0,0-11.6-3.51C45,26.71,46,30,47.68,30.77" transform="translate(-0.31 0)"/><path id="Path_253" data-name="Path 253" class="cls-2" d="M61.89,57.26c-8.53-5.37-9.81-4.12-4.56,4.46a23.22,23.22,0,0,0,4.56-4.46" transform="translate(-0.31 0)"/><path id="Path_254" data-name="Path 254" class="cls-2" d="M10.8,67.06C17.06,62.58,22,59.22,25.57,57l-.27-.38c-3.54,2.58-8.35,6-14.5,10.44" transform="translate(-0.31 0)"/><path id="Path_255" data-name="Path 255" class="cls-2" d="M67.45,76.61c-4.52-6.32-7.9-11.25-10.12-14.89L57,62c2.58,3.56,6.07,8.41,10.5,14.62" transform="translate(-0.31 0)"/><path id="Path_256" data-name="Path 256" class="cls-2" d="M19.9,76.17c4.45-6.09,7.94-10.86,10.54-14.37l-.37-.27C27.83,65.11,24.43,70,19.9,76.17" transform="translate(-0.31 0)"/><path id="Path_257" data-name="Path 257" class="cls-2" d="M60.77,69.93q-2.73-4.26-4.7-7.35l-.2.13q2.19,3,4.9,7.22" transform="translate(-0.31 0)"/><path id="Path_258" data-name="Path 258" class="cls-2" d="M26.46,69.61c1.85-2.79,3.5-5.16,5-7.12l-.21-.13q-2,3-4.78,7.25" transform="translate(-0.31 0)"/><path id="Path_259" data-name="Path 259" class="cls-2" d="M20,10.93c4.42,6,7.76,10.8,10,14.34l.35-.26Q26.46,19.81,20,10.93" transform="translate(-0.31 0)"/><path id="Path_260" data-name="Path 260" class="cls-2" d="M69.88,60.82q-4.11-2.73-7-4.92l-.13.2c2,1.32,4.39,2.89,7.15,4.73" transform="translate(-0.31 0)"/><path id="Path_261" data-name="Path 261" class="cls-2" d="M60.81,17C59,19.79,57.44,22.15,56,24.1l.19.13c1.3-2,2.83-4.42,4.62-7.19" transform="translate(-0.31 0)"/><path id="Path_262" data-name="Path 262" class="cls-2" d="M26.41,17.36c1.81,2.73,3.38,5.09,4.69,7.09l.2-.12c-1.46-1.93-3.09-4.26-4.89-7" transform="translate(-0.31 0)"/><path id="Path_263" data-name="Path 263" class="cls-2" d="M67.37,10.49q-6.48,9.06-10.31,14.32l.37.26c2.21-3.59,5.54-8.43,9.94-14.58" transform="translate(-0.31 0)"/><path id="Path_264" data-name="Path 264" class="cls-2" d="M10.87,20c6,4.3,10.79,7.7,14.3,10.25l.26-.37C21.84,27.71,17,24.41,10.87,20" transform="translate(-0.31 0)"/><path id="Path_265" data-name="Path 265" class="cls-2" d="M76.55,67.5q-9.14-6.7-14.38-10.6l-.28.36c3.59,2.26,8.45,5.68,14.66,10.24" transform="translate(-0.31 0)"/><path id="Path_266" data-name="Path 266" class="cls-2" d="M17.35,60.51q4.27-2.76,7.37-4.73l-.13-.21q-3,2.2-7.24,4.94" transform="translate(-0.31 0)"/><path id="Path_267" data-name="Path 267" class="cls-2" d="M17.31,26.47q4.2,2.7,7.17,4.86l.13-.2-7.3-4.66" transform="translate(-0.31 0)"/><path id="Path_268" data-name="Path 268" class="cls-2" d="M76.48,19.59C70.39,24,65.59,27.4,62,29.65c.09.11.17.23.26.35,3.49-2.58,8.2-6,14.19-10.41" transform="translate(-0.31 0)"/><path id="Path_269" data-name="Path 269" class="cls-2" d="M69.92,26.15q-4.07,2.7-7.07,4.66L63,31c1.93-1.45,4.24-3.07,7-4.85" transform="translate(-0.31 0)"/><path id="Path_270" data-name="Path 270" class="cls-2" d="M13.54,43.46c2.79,0,5.28,0,7.5-.07v0c0-.18,0-.36,0-.54-5,.47-11.86.65-20.75.65,8.89,0,15.77.17,20.75.65,0-.19,0-.39,0-.58-2.23,0-4.71-.07-7.5-.07" transform="translate(-0.31 0)"/><path id="Path_271" data-name="Path 271" class="cls-2" d="M43.77,13.23c0,2.73,0,5.16.07,7.34h.57c-.47-5-.64-11.78-.64-20.58,0,8.79-.17,15.61-.65,20.59l.58,0c0-2.18.07-4.61.07-7.34" transform="translate(-0.31 0)"/><path id="Path_272" data-name="Path 272" class="cls-2" d="M43.77,73.69c0-2.81,0-5.31-.07-7.54l-.59,0c.48,5,.66,11.89.66,20.8,0-8.92.18-15.8.66-20.79h-.58c-.05,2.23-.08,4.73-.08,7.54" transform="translate(-0.31 0)"/><path id="Path_273" data-name="Path 273" class="cls-2" d="M66.62,43.39c2.19,0,4.64.07,7.38.07-2.74,0-5.19,0-7.38.08,0,.19,0,.38,0,.57,5-.47,11.82-.65,20.64-.65-8.82,0-15.65-.17-20.63-.65,0,.19,0,.37,0,.55Z" transform="translate(-0.31 0)"/><path id="Path_274" data-name="Path 274" class="cls-2" d="M97.87,49.35a11.57,11.57,0,0,1-8.23,3.14c-6.37,0-11-3.91-11-9.28s4.63-9.29,11-9.29A11.75,11.75,0,0,1,97.88,37l.28.26,4.44-3.6-.28-.29c-3-3-7.63-4.72-12.95-4.72-10.17,0-17.55,6.11-17.55,14.52s7.36,14.53,17.5,14.53c5.36,0,10-1.68,13-4.73l.28-.28-4.45-3.64Z" transform="translate(-0.31 0)"/></g></g></g></svg>